<svg width="16" height="14" viewBox="0 0 16 14" fill="none" xmlns="http://www.w3.org/2000/svg">
<path fill-rule="evenodd" clip-rule="evenodd" d="M12.8617 12.8427L12.8623 12.8413L12.8753 12.8087L15.1244 1.46944V1.43261C15.1244 1.15008 15.02 0.903437 14.7928 0.755492C14.594 0.625997 14.3655 0.616779 14.2052 0.628944C14.0356 0.641807 13.8758 0.684122 13.7652 0.719342C13.7083 0.737461 13.6606 0.754914 13.6265 0.768122C13.6094 0.774752 13.5955 0.780377 13.5855 0.784562L13.5756 0.788731L1.03572 5.70794L1.03227 5.70914C1.02549 5.71161 1.01654 5.71499 1.00572 5.71919C0.984155 5.72759 0.954799 5.73959 0.920314 5.75526C0.852604 5.78594 0.75905 5.83326 0.664175 5.89821C0.503037 6.00861 0.196197 6.26984 0.248007 6.68399C0.290922 7.02704 0.527405 7.24491 0.686832 7.35771C0.772287 7.41824 0.854052 7.46181 0.913924 7.49031C0.944254 7.50479 0.970024 7.51581 0.989217 7.52361C0.998839 7.52751 1.00688 7.53066 1.0131 7.53306L1.02108 7.53599L1.02617 7.53794L3.2201 8.27654C3.2127 8.41416 3.22635 8.55449 3.26285 8.69301L4.36182 12.8618C4.49211 13.3561 4.93929 13.7004 5.45046 13.7C5.90866 13.6997 6.31503 13.4225 6.48767 13.009L8.20341 11.1744L11.1502 13.4335L11.1921 13.4518C11.4598 13.5687 11.71 13.6057 11.9386 13.5745C12.167 13.5433 12.3484 13.4475 12.4848 13.3384C12.619 13.2311 12.7108 13.11 12.7687 13.0188C12.7981 12.9724 12.82 12.9317 12.8351 12.901C12.8428 12.8857 12.8488 12.8727 12.8533 12.8625L12.859 12.8494L12.861 12.8446L12.8617 12.8427ZM4.35065 8.40621C4.32567 8.31149 4.36488 8.21144 4.4476 8.15894L11.8891 3.43324C11.8891 3.43324 12.3268 3.16751 12.3112 3.43324C12.3112 3.43324 12.3893 3.48016 12.1547 3.69896C11.9323 3.90677 6.85101 8.81256 6.33682 9.30898C6.30714 9.33764 6.28943 9.37049 6.27897 9.41039L5.44962 12.575L4.35065 8.40621Z" fill="white"/>
</svg>
