<svg width="16" height="14" viewBox="0 0 16 14" fill="none" xmlns="http://www.w3.org/2000/svg">
<path d="M15.3845 0.8526C14.7416 1.31591 14.0298 1.67028 13.2765 1.90204C12.8722 1.42705 12.3348 1.0904 11.7372 0.937602C11.1395 0.784806 10.5103 0.823241 9.93467 1.04771C9.35907 1.27218 8.86482 1.67185 8.51877 2.19267C8.17273 2.71349 7.99159 3.33033 7.99985 3.95976V4.64566C6.82008 4.67692 5.65105 4.40958 4.59689 3.86747C3.54273 3.32535 2.63615 2.52528 1.95789 1.53851C1.95789 1.53851 -0.727423 7.71167 5.31454 10.4553C3.93195 11.4142 2.28493 11.895 0.615234 11.8271C6.65719 15.2566 14.0418 11.8271 14.0418 3.93918C14.0412 3.74812 14.0232 3.55754 13.9881 3.36988C14.6733 2.67951 15.1568 1.80787 15.3845 0.8526Z" fill="white"/>
</svg>
