<svg width="19" height="11" viewBox="0 0 19 11" fill="none" xmlns="http://www.w3.org/2000/svg">
<path d="M16.0941 7.38683C14.5799 6.0161 14.8638 6.29025 16.6619 3.91432C17.7029 2.5436 18.176 1.62978 18.0814 1.26426C17.9868 0.89873 17.135 0.990111 17.135 0.990111H14.4853C14.4853 0.990111 14.296 0.990111 14.1067 1.08149C13.9174 1.17287 13.8228 1.35564 13.8228 1.35564C13.8228 1.35564 13.3496 2.45222 12.8765 3.36603C11.7408 5.37643 11.173 5.46781 10.9837 5.37643C10.5106 5.10228 10.6052 4.18847 10.6052 3.64018C10.6052 1.72116 10.8891 0.990111 10.0374 0.715966C9.75348 0.624585 9.46957 0.533203 8.71249 0.533203C7.76613 0.533203 6.91441 0.533203 6.44123 0.807348C6.25196 0.89873 5.96806 1.26426 6.15733 1.26426C6.3466 1.26426 6.72514 1.35564 7.00905 1.62978C7.29295 1.99531 7.29295 2.81774 7.29295 2.81774C7.29295 2.81774 7.29295 5.10228 6.81978 5.37643C6.44123 5.65057 5.96806 5.19367 4.92707 3.36603C4.35925 2.45222 3.88608 1.44702 3.88608 1.44702C3.88608 1.44702 3.79144 1.26426 3.6968 1.17287C3.50753 0.990111 3.31826 0.990111 3.31826 0.990111H0.668467C0.668467 0.990111 0.289925 0.990111 0.100654 1.17287C0.00601846 1.35564 0.100654 1.62978 0.100654 1.62978C0.100654 1.62978 2.088 6.10748 4.35925 8.48341C6.44123 10.5852 8.80712 10.4938 8.80712 10.4938H9.84811C9.84811 10.4938 10.2267 10.4938 10.3213 10.311C10.5106 10.1283 10.5106 9.85413 10.5106 9.85413C10.5106 9.85413 10.5106 8.48341 11.173 8.30064C11.8355 8.11788 12.6872 9.57999 13.6335 10.2197C14.3906 10.6766 14.7692 10.5852 14.7692 10.5852H17.2297C17.2297 10.5852 18.4599 10.4938 17.8921 9.57999C17.8921 9.30584 17.5136 8.75755 16.0941 7.38683Z" fill="white"/>
</svg>
