<svg width="16" height="16" viewBox="0 0 16 16" fill="none" xmlns="http://www.w3.org/2000/svg">
<path d="M3.44927 14.2022L1.31439 14.8846L1.99739 12.848L2.07946 12.6033L1.92752 12.3946C1.02872 11.1605 0.5 9.64043 0.5 7.99993C0.5 3.86679 3.85988 0.503819 7.99064 0.500003L7.99517 0.500133H8.00232C12.1363 0.500133 15.5 3.86457 15.5 8.00007C15.5 12.1354 12.1363 15.5 8.00232 15.5C6.47652 15.5 5.06278 15.0462 3.87746 14.2616L3.67759 14.1293L3.44927 14.2022Z" stroke="white"/>
<path fill-rule="evenodd" clip-rule="evenodd" d="M5.76454 4.06459C5.60942 3.69307 5.49185 3.679 5.25685 3.66945C5.17683 3.6648 5.08766 3.66016 4.98881 3.66016C4.68308 3.66016 4.36341 3.74949 4.17061 3.94699C3.9356 4.18684 3.35254 4.74644 3.35254 5.89405C3.35254 7.04165 4.18945 8.15157 4.30224 8.30686C4.41981 8.4619 5.93386 10.8511 8.28469 11.8248C10.1231 12.5867 10.6686 12.5161 11.0869 12.4268C11.6981 12.2951 12.4646 11.8434 12.6574 11.298C12.8502 10.7523 12.8502 10.2867 12.7937 10.188C12.7373 10.0892 12.582 10.0329 12.347 9.91519C12.112 9.79758 10.9694 9.23321 10.7531 9.15795C10.5414 9.07804 10.3393 9.10631 10.1796 9.33209C9.95386 9.6472 9.73293 9.96708 9.55419 10.1598C9.41313 10.3103 9.18264 10.3292 8.98997 10.2491C8.73134 10.1411 8.00736 9.88691 7.11392 9.09211C6.42271 8.4761 5.95257 7.70957 5.81629 7.47914C5.67988 7.24407 5.80223 7.10749 5.91024 6.9806C6.02781 6.83472 6.1406 6.73133 6.25817 6.59488C6.37574 6.45856 6.44155 6.38795 6.51679 6.228C6.59681 6.07284 6.54028 5.9129 6.48388 5.79529C6.42749 5.67769 5.95735 4.53009 5.76454 4.06459Z" fill="white"/>
</svg>
