<svg width="56" height="56" viewBox="0 0 56 56" fill="none" xmlns="http://www.w3.org/2000/svg">
<g clip-path="url(#clip0)">
<path d="M43.311 50.7548L8.3077 50.7496C7.82358 50.7496 7.43262 50.3574 7.43262 49.8745V0.875082C7.43262 0.390967 7.82358 0 8.3077 0H38.0605C38.2925 0 38.5155 0.0918665 38.6792 0.256372L43.9297 5.50174C44.0942 5.66624 44.1861 5.88758 44.1861 6.12045V49.8797C44.1861 50.1125 44.0942 50.3347 43.9297 50.4984C43.7652 50.662 43.5438 50.7548 43.311 50.7548ZM9.18278 48.9995L42.4359 49.0046V6.48279L37.6981 1.75016H9.18278V48.9995Z" fill="white"/>
<path d="M40.6879 53.3778L5.68465 53.3727C5.20054 53.3727 4.80957 52.9804 4.80957 52.4976V3.49813C4.80957 3.01401 5.20054 2.62305 5.68465 2.62305H8.30733C8.79102 2.62305 9.18242 3.01401 9.18242 3.49813C9.18242 3.98182 8.79102 4.37321 8.30733 4.37321H6.55973V51.6225L39.8128 51.6276V49.8749C39.8128 49.3908 40.2038 48.9998 40.6879 48.9998C41.172 48.9998 41.563 49.3908 41.563 49.8749V52.5027C41.563 52.7356 41.4711 52.9578 41.3066 53.1214C41.1421 53.2851 40.9208 53.3778 40.6879 53.3778Z" fill="white"/>
<path d="M38.061 55.9998L3.0577 55.9943C2.57358 55.9943 2.18262 55.6025 2.18262 55.1192V6.1202C2.18262 5.63608 2.57358 5.24512 3.0577 5.24512H5.68038C6.16407 5.24512 6.55546 5.63608 6.55546 6.1202C6.55546 6.60389 6.16407 6.99528 5.68038 6.99528H3.93278V54.2441L37.1859 54.2497V52.497C37.1859 52.0128 37.5769 51.6219 38.061 51.6219C38.5447 51.6219 38.9361 52.0128 38.9361 52.497V55.1248C38.9361 55.3572 38.8442 55.5798 38.6797 55.7435C38.5152 55.9071 38.2938 55.9998 38.061 55.9998Z" fill="white"/>
<path d="M43.3111 6.99528H38.0606C37.5765 6.99528 37.1855 6.60389 37.1855 6.1202C37.1855 5.63608 37.5765 5.24512 38.0606 5.24512H43.3111C43.7948 5.24512 44.1862 5.63608 44.1862 6.1202C44.1862 6.60389 43.7948 6.99528 43.3111 6.99528Z" fill="white"/>
<path d="M38.0606 6.99553C37.5765 6.99553 37.1855 6.60414 37.1855 6.12045V0.875082C37.1855 0.390967 37.5765 0 38.0606 0C38.5443 0 38.9357 0.390967 38.9357 0.875082V6.12045C38.9357 6.60414 38.5443 6.99553 38.0606 6.99553Z" fill="white"/>
<path d="M50.3119 12.2406C49.8278 12.2406 49.4369 11.8496 49.4369 11.3655C49.4369 10.8826 49.0446 10.4904 48.5618 10.4904C48.0785 10.4904 47.6867 10.8826 47.6867 11.3655C47.6867 11.8496 47.2953 12.2406 46.8116 12.2406C46.3275 12.2406 45.9365 11.8496 45.9365 11.3655C45.9365 9.91826 47.1141 8.74023 48.5618 8.74023C50.009 8.74023 51.187 9.91826 51.187 11.3655C51.187 11.8496 50.7956 12.2406 50.3119 12.2406Z" fill="white"/>
<path d="M46.8116 41.9932C46.3275 41.9932 45.9365 41.6022 45.9365 41.1181V11.3653C45.9365 10.8816 46.3275 10.4902 46.8116 10.4902C47.2953 10.4902 47.6867 10.8816 47.6867 11.3653V41.1181C47.6867 41.6022 47.2953 41.9932 46.8116 41.9932Z" fill="white"/>
<path d="M50.3116 41.9932C49.8275 41.9932 49.4365 41.6022 49.4365 41.1181V11.3653C49.4365 10.8816 49.8275 10.4902 50.3116 10.4902C50.7953 10.4902 51.1867 10.8816 51.1867 11.3653V41.1181C51.1867 41.6022 50.7953 41.9932 50.3116 41.9932Z" fill="white"/>
<path d="M48.5632 44.6183C48.2804 44.6183 48.0022 44.482 47.8343 44.229L46.0841 41.6038C45.8154 41.2013 45.9239 40.6586 46.3264 40.3898C46.7289 40.1224 47.2716 40.2309 47.5403 40.6325L49.2905 43.2578C49.5593 43.6603 49.4507 44.2029 49.0478 44.4713C48.8982 44.5713 48.7295 44.6183 48.5632 44.6183Z" fill="white"/>
<path d="M48.5604 44.6183C48.3942 44.6183 48.225 44.5704 48.0754 44.4713C47.6729 44.2029 47.5644 43.6603 47.8331 43.2578L49.5833 40.6325C49.8504 40.2309 50.3926 40.1224 50.7968 40.3898C51.1997 40.6586 51.3083 41.2013 51.0395 41.6038L49.2893 44.229C49.1214 44.482 48.8428 44.6183 48.5604 44.6183Z" fill="white"/>
<path d="M48.5626 45.4934C48.0785 45.4934 47.6875 45.1024 47.6875 44.6183V43.7432C47.6875 43.2596 48.0785 42.8682 48.5626 42.8682C49.0463 42.8682 49.4377 43.2596 49.4377 43.7432V44.6183C49.4377 45.1024 49.0463 45.4934 48.5626 45.4934Z" fill="white"/>
<path d="M50.3119 40.2433H46.8116C46.3275 40.2433 45.9365 39.8524 45.9365 39.3682C45.9365 38.8846 46.3275 38.4932 46.8116 38.4932H50.3119C50.7956 38.4932 51.187 38.8846 51.187 39.3682C51.187 39.8524 50.7956 40.2433 50.3119 40.2433Z" fill="white"/>
<path d="M52.9368 14.8656C52.4527 14.8656 52.0617 14.4746 52.0617 13.9905C52.0617 13.5076 51.6694 13.1154 51.1866 13.1154C50.7025 13.1154 50.3115 12.7244 50.3115 12.2403C50.3115 11.7566 50.7025 11.3652 51.1866 11.3652C52.6338 11.3652 53.8119 12.5433 53.8119 13.9905C53.8119 14.4746 53.4205 14.8656 52.9368 14.8656Z" fill="white"/>
<path d="M52.9376 25.3664C52.4535 25.3664 52.0625 24.9754 52.0625 24.4913V13.9903C52.0625 13.5066 52.4535 13.1152 52.9376 13.1152C53.4213 13.1152 53.8127 13.5066 53.8127 13.9903V24.4913C53.8127 24.9754 53.4213 25.3664 52.9376 25.3664Z" fill="white"/>
<path d="M51.1867 13.1154H50.3116C49.8275 13.1154 49.4365 12.7244 49.4365 12.2403C49.4365 11.7566 49.8275 11.3652 50.3116 11.3652H51.1867C51.6704 11.3652 52.0618 11.7566 52.0618 12.2403C52.0618 12.7244 51.6704 13.1154 51.1867 13.1154Z" fill="white"/>
<path d="M50.3119 20.9914H46.8116C46.3275 20.9914 45.9365 20.6004 45.9365 20.1163C45.9365 19.6326 46.3275 19.2412 46.8116 19.2412H50.3119C50.7956 19.2412 51.187 19.6326 51.187 20.1163C51.187 20.6004 50.7956 20.9914 50.3119 20.9914Z" fill="white"/>
<path d="M37.1858 23.6222H14.4337C13.9496 23.6222 13.5586 23.2308 13.5586 22.7472C13.5586 22.263 13.9496 21.8721 14.4337 21.8721H37.1858C37.6695 21.8721 38.0609 22.263 38.0609 22.7472C38.0609 23.2308 37.6695 23.6222 37.1858 23.6222Z" fill="white"/>
<path d="M37.1858 27.9972H14.4337C13.9496 27.9972 13.5586 27.6058 13.5586 27.1222C13.5586 26.638 13.9496 26.2471 14.4337 26.2471H37.1858C37.6695 26.2471 38.0609 26.638 38.0609 27.1222C38.0609 27.6058 37.6695 27.9972 37.1858 27.9972Z" fill="white"/>
<path d="M37.1858 32.3732H14.4337C13.9496 32.3732 13.5586 31.9818 13.5586 31.4981C13.5586 31.014 13.9496 30.623 14.4337 30.623H37.1858C37.6695 30.623 38.0609 31.014 38.0609 31.4981C38.0609 31.9818 37.6695 32.3732 37.1858 32.3732Z" fill="white"/>
<path d="M25.8097 36.7482H14.4337C13.9496 36.7482 13.5586 36.3568 13.5586 35.8731C13.5586 35.389 13.9496 34.998 14.4337 34.998H25.8097C26.2934 34.998 26.6848 35.389 26.6848 35.8731C26.6848 36.3568 26.2934 36.7482 25.8097 36.7482Z" fill="white"/>
<path d="M37.1862 44.6242H31.0606C30.5765 44.6242 30.1855 44.2328 30.1855 43.7491C30.1855 43.265 30.5765 42.874 31.0606 42.874H37.1862C37.6699 42.874 38.0613 43.265 38.0613 43.7491C38.0613 44.2328 37.6699 44.6242 37.1862 44.6242Z" fill="white"/>
<path d="M32.8097 46.3745C32.3255 46.3745 31.9346 45.9831 31.9346 45.4994V41.9991C31.9346 41.515 32.3255 41.124 32.8097 41.124C33.2933 41.124 33.6847 41.515 33.6847 41.9991V45.4994C33.6847 45.9831 33.2933 46.3745 32.8097 46.3745Z" fill="white"/>
<path d="M32.8101 46.3741C32.6272 46.3741 32.4435 46.3172 32.2858 46.1989C31.8991 45.9092 31.8205 45.3605 32.1106 44.9747L34.7359 41.4744C35.0256 41.0868 35.5742 41.0095 35.9605 41.2992C36.3472 41.5889 36.4258 42.1375 36.1353 42.5238L33.51 46.0241C33.3395 46.2531 33.0767 46.3741 32.8101 46.3741Z" fill="white"/>
<path d="M35.4356 46.3745C34.9515 46.3745 34.5605 45.9831 34.5605 45.4994V41.9991C34.5605 41.515 34.9515 41.124 35.4356 41.124C35.9193 41.124 36.3107 41.515 36.3107 41.9991V45.4994C36.3107 45.9831 35.9193 46.3745 35.4356 46.3745Z" fill="white"/>
<path d="M21.4343 17.5138H14.4337C13.9496 17.5138 13.5586 17.1224 13.5586 16.6387C13.5586 16.1546 13.9496 15.7637 14.4337 15.7637H21.4343C21.918 15.7637 22.3094 16.1546 22.3094 16.6387C22.3094 17.1224 21.918 17.5138 21.4343 17.5138Z" fill="white"/>
<path d="M17.9347 17.5137C17.4505 17.5137 17.0596 17.1223 17.0596 16.6386V8.76375C17.0596 8.27964 17.4505 7.88867 17.9347 7.88867C18.4183 7.88867 18.8097 8.27964 18.8097 8.76375V16.6386C18.8097 17.1215 18.4183 17.5137 17.9347 17.5137Z" fill="white"/>
<path d="M21.4343 10.5138H14.4337C13.9496 10.5138 13.5586 10.1224 13.5586 9.63875C13.5586 9.15464 13.9496 8.76367 14.4337 8.76367H21.4343C21.918 8.76367 22.3094 9.15464 22.3094 9.63875C22.3094 10.1224 21.918 10.5138 21.4343 10.5138Z" fill="white"/>
<path d="M22.3088 13.1398H20.5587C20.0746 13.1398 19.6836 12.7484 19.6836 12.2647C19.6836 11.7806 20.0746 11.3896 20.5587 11.3896H22.3088C22.7925 11.3896 23.1839 11.7806 23.1839 12.2647C23.1839 12.7484 22.7925 13.1398 22.3088 13.1398Z" fill="white"/>
<path d="M15.3088 13.1398H13.5587C13.0746 13.1398 12.6836 12.7484 12.6836 12.2647C12.6836 11.7806 13.0746 11.3896 13.5587 11.3896H15.3088C15.7925 11.3896 16.1839 11.7806 16.1839 12.2647C16.1839 12.7484 15.7925 13.1398 15.3088 13.1398Z" fill="white"/>
</g>
<defs>
<clipPath id="clip0">
<rect width="56" height="56" fill="white"/>
</clipPath>
</defs>
</svg>
