<svg width="16" height="14" viewBox="0 0 16 14" fill="none" xmlns="http://www.w3.org/2000/svg">
<path fill-rule="evenodd" clip-rule="evenodd" d="M8.47363 0.584473H7.53613V2.26538H8.47363V0.584473ZM13.9999 8.00693C14.3655 8.00693 14.5274 7.90574 14.7515 7.76568L14.7516 7.76562C15.0252 7.59466 15.3656 7.38193 16 7.38193V8.31943C15.6344 8.31943 15.4725 8.42062 15.2484 8.56068L15.2483 8.56073C14.9747 8.73169 14.6343 8.94443 13.9999 8.94443C13.3654 8.94443 13.0249 8.73165 12.7514 8.56068C12.5273 8.42062 12.3653 8.31943 11.9998 8.31943C11.6342 8.31943 11.4722 8.42062 11.2482 8.56068C10.9746 8.73165 10.6342 8.94443 9.99972 8.94443C9.36531 8.94443 9.02487 8.73167 8.75132 8.5607L8.75128 8.56068C8.52719 8.42062 8.36528 8.31943 7.99972 8.31943C7.63424 8.31943 7.47233 8.42062 7.24832 8.56062L7.24822 8.56068C6.97469 8.73165 6.63425 8.94443 5.99984 8.94443C5.36544 8.94443 5.025 8.73167 4.75144 8.5607L4.75141 8.56068C4.52734 8.42062 4.36541 8.31943 3.99988 8.31943C3.63437 8.31943 3.47243 8.42064 3.24839 8.56065L3.24834 8.56068L3.24831 8.5607L3.2483 8.56071C2.97475 8.73167 2.63431 8.94443 1.99991 8.94443C1.36547 8.94443 1.02503 8.73165 0.7515 8.56068C0.527438 8.42062 0.365531 8.31943 0 8.31943V7.38193C0.634438 7.38193 0.974875 7.59471 1.24841 7.76568C1.47247 7.90574 1.63438 8.00693 1.99991 8.00693C2.36542 8.00693 2.52736 7.90572 2.7514 7.7657L2.75144 7.76568C2.92909 7.65465 3.13556 7.5263 3.43184 7.44974C3.55912 5.04037 5.55931 3.1193 7.99984 3.1193C10.4404 3.1193 12.4406 5.0404 12.5679 7.44977C12.8641 7.52637 13.0706 7.65465 13.2482 7.76568L13.2482 7.76569C13.4724 7.90575 13.6343 8.00693 13.9999 8.00693ZM9.99972 8.00693C10.3653 8.00693 10.5272 7.90574 10.7513 7.76568C10.9653 7.6319 11.2211 7.47296 11.6259 7.40993C11.4806 5.53665 9.90984 4.0568 7.99991 4.0568C6.08997 4.0568 4.51919 5.53665 4.37388 7.40996C4.77859 7.47299 5.03431 7.6319 5.24834 7.76568C5.47241 7.90574 5.63431 8.00693 5.99988 8.00693C6.36535 8.00693 6.52727 7.90574 6.75128 7.76574L6.75138 7.76568C7.02491 7.59471 7.36534 7.38193 7.99975 7.38193C8.63416 7.38193 8.97459 7.59469 9.24815 7.76565L9.24819 7.76568C9.47225 7.90574 9.63416 8.00693 9.99972 8.00693ZM13.2482 10.0012C13.4724 10.1413 13.6343 10.2424 13.9999 10.2424C14.3655 10.2424 14.5274 10.1412 14.7515 10.0012L14.7516 10.0011L14.7516 10.0011C15.0252 9.83016 15.3656 9.61743 16 9.61743V10.5549C15.6344 10.5549 15.4725 10.6561 15.2484 10.7962L15.2483 10.7962L15.2483 10.7962C14.9747 10.9672 14.6343 11.1799 13.9999 11.1799C13.3654 11.1799 13.0249 10.9672 12.7514 10.7962C12.5273 10.6561 12.3653 10.5549 11.9998 10.5549C11.6342 10.5549 11.4722 10.6561 11.2482 10.7962C10.9746 10.9672 10.6342 11.1799 9.99972 11.1799C9.36531 11.1799 9.02488 10.9672 8.75132 10.7962L8.75132 10.7962L8.75128 10.7962C8.52719 10.6561 8.36528 10.5549 7.99972 10.5549C7.63424 10.5549 7.47233 10.6561 7.24832 10.7961L7.24822 10.7962C6.97469 10.9672 6.63425 11.1799 5.99984 11.1799C5.36543 11.1799 5.025 10.9672 4.75144 10.7962L4.75141 10.7962C4.52734 10.6561 4.36541 10.5549 3.99988 10.5549C3.63437 10.5549 3.47243 10.6561 3.24839 10.7962L3.24834 10.7962L3.24831 10.7962C2.97475 10.9672 2.63432 11.1799 1.99991 11.1799C1.36547 11.1799 1.02503 10.9672 0.7515 10.7962C0.527438 10.6561 0.365531 10.5549 0 10.5549V9.61743C0.634438 9.61743 0.974875 9.83021 1.24841 10.0012C1.47247 10.1412 1.63438 10.2424 1.99991 10.2424C2.36541 10.2424 2.52735 10.1412 2.7514 10.0012L2.75144 10.0012L2.75147 10.0012L2.75148 10.0012C3.02503 9.83019 3.36547 9.61743 3.99988 9.61743C4.63429 9.61743 4.97472 9.83019 5.24828 10.0012L5.24831 10.0012C5.47237 10.1412 5.63428 10.2424 5.99984 10.2424C6.36532 10.2424 6.52723 10.1412 6.75125 10.0012L6.75134 10.0012C7.02488 9.83021 7.36531 9.61743 7.99972 9.61743C8.63412 9.61743 8.97456 9.83019 9.24812 10.0012L9.24812 10.0012L9.24816 10.0012C9.47222 10.1412 9.63412 10.2424 9.99969 10.2424C10.3652 10.2424 10.5272 10.1412 10.7513 10.0012C11.0248 9.83021 11.3653 9.61743 11.9997 9.61743C12.6342 9.61743 12.9747 9.83021 13.2482 10.0012L13.2482 10.0012ZM9.99949 12.478C9.63392 12.478 9.47202 12.3768 9.24796 12.2368L9.24792 12.2368C8.97436 12.0658 8.63393 11.853 7.99952 11.853C7.36511 11.853 7.02467 12.0658 6.75114 12.2368L6.75104 12.2368C6.52703 12.3768 6.36512 12.478 5.99964 12.478C5.63408 12.478 5.47217 12.3768 5.24811 12.2368L5.24808 12.2368L5.24807 12.2367C4.97452 12.0658 4.63408 11.853 3.99967 11.853V12.7905C4.36524 12.7905 4.52714 12.8917 4.75121 13.0318L4.75124 13.0318C5.0248 13.2028 5.36523 13.4155 5.99964 13.4155C6.63405 13.4155 6.97449 13.2027 7.24802 13.0318L7.24812 13.0317C7.47213 12.8917 7.63404 12.7905 7.99952 12.7905C8.36508 12.7905 8.52699 12.8917 8.75108 13.0318L8.75111 13.0318L8.75112 13.0318C9.02468 13.2028 9.36511 13.4155 9.99952 13.4155C10.634 13.4155 10.9744 13.2027 11.248 13.0318C11.472 12.8917 11.634 12.7905 11.9995 12.7905V11.853C11.3651 11.853 11.0246 12.0658 10.7511 12.2368L10.751 12.2368C10.5269 12.3769 10.365 12.478 9.99949 12.478ZM4.49772 1.48926L5.3424 1.08238L6.07191 2.59688L5.22723 3.00375L4.49772 1.48926ZM2.7393 2.89236L2.1543 3.62549L3.46877 4.67437L4.05377 3.94125L2.7393 2.89236ZM0.966797 6.56714L1.17586 5.65308L2.81471 6.02791L2.60565 6.94197L0.966797 6.56714ZM14.8319 5.65299L13.193 6.02783L13.4021 6.9419L15.041 6.56705L14.8319 5.65299ZM11.959 3.94133L13.2735 2.89244L13.8585 3.62556L12.544 4.67445L11.959 3.94133ZM10.668 1.08723L9.93848 2.60173L10.7832 3.0086L11.5127 1.4941L10.668 1.08723Z" fill="white"/>
</svg>
