<svg width="32" height="32" viewBox="0 0 32 32" fill="none" xmlns="http://www.w3.org/2000/svg">
<g clip-path="url(#clip0)">
<path d="M17.7679 16.001L31.6339 2.13493C32.1221 1.64674 32.1221 0.855241 31.6339 0.367117C31.1457 -0.121008 30.3542 -0.12107 29.8661 0.367117L16 14.2332L2.13395 0.367117C1.64576 -0.12107 0.854264 -0.12107 0.36614 0.367117C-0.121984 0.855304 -0.122047 1.6468 0.36614 2.13493L14.2322 16.001L0.36614 29.8671C-0.122047 30.3553 -0.122047 31.1468 0.36614 31.6349C0.610202 31.879 0.930139 32.001 1.25008 32.001C1.57001 32.001 1.88989 31.879 2.13401 31.6349L16 17.7688L29.866 31.6349C30.1101 31.879 30.43 32.001 30.75 32.001C31.0699 32.001 31.3898 31.879 31.6339 31.6349C32.1221 31.1467 32.1221 30.3552 31.6339 29.8671L17.7679 16.001Z" fill="#191926"/>
</g>
<defs>
<clipPath id="clip0">
<rect width="32" height="32" fill="white"/>
</clipPath>
</defs>
</svg>
