<svg width="56" height="56" viewBox="0 0 56 56" fill="none" xmlns="http://www.w3.org/2000/svg">
<g clip-path="url(#clip0)">
<path d="M19.1208 30.0908C19.574 30.0908 19.9411 29.7236 19.9411 29.2705C19.9411 28.8173 19.574 28.4502 19.1208 28.4502H15.4178V25.9901C15.4178 25.537 15.0506 25.1698 14.5975 25.1698C14.1444 25.1698 13.7772 25.537 13.7772 25.9901V28.4502H10.8944V18.9768C10.8944 18.3731 10.4255 17.9004 9.82689 17.9004H1.4153C0.737828 17.9004 0.207031 18.487 0.207031 19.2358V54.6648C0.207031 55.4136 0.737828 56.0002 1.4153 56.0002H18.7329C19.3991 56.0002 19.9411 55.4011 19.9411 54.6648V46.1595C19.9411 45.7064 19.574 45.3392 19.1208 45.3392C18.6677 45.3392 18.3005 45.7064 18.3005 46.1595V54.3596H1.84777V19.541H9.25388V21.6054H6.48297C6.02983 21.6054 5.66266 21.9725 5.66266 22.4257C5.66266 22.8788 6.02983 23.246 6.48297 23.246H9.25377V26.2247H6.76767C6.31453 26.2247 5.94736 26.5919 5.94736 27.045C5.94736 27.4982 6.31453 27.8653 6.76767 27.8653H9.25377V35.1135C9.25377 35.5666 9.62094 35.9338 10.0741 35.9338H18.3005V42.3454C18.3005 42.7985 18.6677 43.1657 19.1208 43.1657C19.574 43.1657 19.9411 42.7985 19.9411 42.3454V35.3694C19.9411 34.7047 19.3692 34.2932 18.8393 34.2932H15.4178V30.0908H19.1208ZM13.7772 34.2932H10.8944V30.0908H13.7771V34.2932H13.7772Z" fill="white"/>
<path d="M47.0938 37.9406V33.8898V26.4681C47.0938 26.4678 47.0938 26.4673 47.0938 26.467V24.1017V14.9945C47.0938 14.9942 47.0938 14.9938 47.0938 14.9935V14.3136V10.0774H48.6916C49.4371 10.0774 50.0436 9.47133 50.0436 8.72638V8.65091H54.2941C54.6575 8.65091 54.9908 8.53322 55.2505 8.33788C55.2975 8.30638 55.342 8.26963 55.3832 8.2273C55.3925 8.21778 55.4004 8.2075 55.4092 8.19766C55.6471 7.95736 55.7932 7.64105 55.7932 7.29378V2.78359C55.7932 2.03514 55.1208 1.42636 54.2941 1.42636H50.0437V1.351C50.0437 0.606047 49.4372 0 48.6917 0H38.2592C37.5137 0 36.9071 0.606047 36.9071 1.351V1.42636H35.3562H26.2295C26.2285 1.42636 26.2276 1.42636 26.2266 1.42636H25.5461H13.8029C12.9746 1.42636 12.3008 2.03514 12.3008 2.78359V7.29367C12.3008 8.04202 12.9746 8.6508 13.8029 8.6508H17.7062V11.4787L14.6716 14.704H13.9219C13.204 14.704 12.6199 15.2877 12.6199 16.0051V19.8411C12.6199 20.5601 13.204 21.1451 13.9219 21.1451H23.1283C23.8479 21.1451 24.4334 20.5601 24.4334 19.8411V16.0051C24.4334 15.2877 23.8479 14.704 23.1283 14.704H22.3817L19.3469 11.4787V8.65091H25.5463H35.3563H36.9072V8.72638C36.9072 9.47133 37.5138 10.0774 38.2593 10.0774H39.8569V14.3134V24.1015V33.8897V42.8575H37.2862C36.1491 42.8575 35.224 43.7814 35.224 44.917V50.2673H34.324C32.7401 50.2673 31.4515 51.5539 31.4515 53.1353V54.6303C31.4515 55.3855 32.0679 55.9999 32.8255 55.9999H54.385C55.1409 55.9999 55.7558 55.3855 55.7558 54.6303V53.1353C55.7558 51.5539 54.4686 50.2673 52.8866 50.2673H51.9865V44.917C51.9865 43.7814 51.0599 42.8575 49.9211 42.8575H47.0938V37.9416C47.0938 37.9413 47.0938 37.941 47.0938 37.9406ZM54.1527 3.06731V5.88919L51.246 3.0672L54.1527 3.06731ZM50.0437 4.18644L52.9522 7.01028H50.0437V4.18644ZM13.9414 7.00984V3.06698H14.3962L18.4562 7.00995L13.9414 7.00984ZM22.7927 16.3448V19.5046H14.2605V16.3448H22.7927ZM20.1289 14.7042H16.9242L18.5265 13.0011L20.1289 14.7042ZM16.751 3.06698H24.206L20.4785 6.68708L16.751 3.06698ZM25.5462 7.01028L22.5008 7.01017L26.2282 3.39019L29.9557 7.01028H25.5462ZM28.2502 3.06698H35.3562H35.7053L31.9777 6.68708L28.2502 3.06698ZM35.3562 7.01028H33.9998L36.9071 4.18688V7.01028H35.3562ZM49.921 44.4982C50.1553 44.4982 50.3458 44.6861 50.3458 44.9171V50.2674H45.5697C45.1166 50.2674 44.7494 50.6346 44.7494 51.0878C44.7494 51.5409 45.1166 51.9081 45.5697 51.9081H52.8865C53.5639 51.9081 54.1151 52.4585 54.1151 53.1354V54.3594H33.0921V53.1354C33.0921 52.4585 33.6448 51.9081 34.324 51.9081H41.597C42.0501 51.9081 42.4173 51.5409 42.4173 51.0878C42.4173 50.6346 42.0501 50.2674 41.597 50.2674H36.8647V44.9171C36.8647 44.6901 37.0578 44.4982 37.2862 44.4982H40.6771H46.2735H49.921ZM45.1276 14.9939L41.4976 18.715V14.3134V11.2726L45.1276 14.9939ZM42.6234 10.0774H45.4532V12.9783L42.6234 10.0774ZM45.4532 17.0095V24.1015V24.4518L41.8231 20.7305L45.4532 17.0095ZM45.1276 26.4674L41.4976 30.1887V24.1015V22.7462L45.1276 26.4674ZM45.4532 28.4831V33.8898V35.9255L41.8232 32.2043L45.4532 28.4831ZM45.1276 37.9412L41.4976 41.6624V34.2199L45.1276 37.9412ZM45.4532 39.9568V42.8576H42.6234L45.4532 39.9568ZM46.2735 8.43675H40.688C40.6874 8.43675 40.6868 8.43675 40.6861 8.43675H40.6771H38.5476V1.64063H48.403V8.43675H46.2735Z" fill="white"/>
<path d="M16.3341 39.6109C16.3341 38.9347 15.785 38.3848 15.1103 38.3848H5.03752C4.36092 38.3848 3.81055 38.9347 3.81055 39.6109V42.9569C3.81055 43.633 4.36092 44.183 5.03752 44.183H15.1103C15.7851 44.183 16.3341 43.633 16.3341 42.9569V39.6109ZM9.25349 42.5423H5.45117V40.0254H9.2536V42.5423H9.25349ZM14.6935 42.5423H10.8941V40.0254H14.6934V42.5423H14.6935Z" fill="white"/>
<path d="M15.1102 46.6348H5.03752C4.36092 46.6348 3.81055 47.1847 3.81055 47.8609V51.2069C3.81055 51.8829 4.36092 52.4328 5.03752 52.4328H15.1103C15.7851 52.4328 16.3341 51.8829 16.3341 51.2069V47.8609C16.3341 47.1847 15.785 46.6348 15.1102 46.6348ZM9.25349 50.7922H5.45117V48.2754H9.2536V50.7922H9.25349ZM14.6935 50.7922H10.8941V48.2754H14.6934V50.7922H14.6935Z" fill="white"/>
</g>
<defs>
<clipPath id="clip0">
<rect width="56" height="56" fill="white"/>
</clipPath>
</defs>
</svg>
