<svg width="20" height="20" viewBox="0 0 20 20" fill="none" xmlns="http://www.w3.org/2000/svg">
<path d="M19.427 9.76848C19.1087 9.76848 18.854 10.0232 18.854 10.3415V15.5537C18.854 16.9714 17.6995 18.1216 16.2861 18.1216H3.71392C2.29626 18.1216 1.14601 16.9671 1.14601 15.5537V10.2566C1.14601 9.93826 0.891341 9.68359 0.573005 9.68359C0.254669 9.68359 0 9.93826 0 10.2566V15.5537C0 17.6038 1.66808 19.2676 3.71392 19.2676H16.2861C18.3362 19.2676 20 17.5996 20 15.5537V10.3415C20 10.0274 19.7453 9.76848 19.427 9.76848Z" fill="#83838B"/>
<path d="M9.59695 14.718C9.70731 14.8283 9.85587 14.8878 10.0002 14.8878C10.1445 14.8878 10.293 14.8326 10.4034 14.718L14.0452 11.0762C14.2701 10.8513 14.2701 10.4905 14.0452 10.2655C13.8202 10.0406 13.4594 10.0406 13.2345 10.2655L10.5732 12.9311V1.30543C10.5732 0.987091 10.3185 0.732422 10.0002 0.732422C9.68184 0.732422 9.42717 0.987091 9.42717 1.30543V12.9311L6.76164 10.2655C6.53668 10.0406 6.1759 10.0406 5.95094 10.2655C5.72599 10.4905 5.72599 10.8513 5.95094 11.0762L9.59695 14.718Z" fill="#83838B"/>
</svg>
