<svg width="32" height="32" viewBox="0 0 32 32" fill="none" xmlns="http://www.w3.org/2000/svg">
<path d="M27.3339 20.0345C27.3336 20.0314 27.3334 20.0282 27.3332 20.0252C27.2369 18.6901 26.9907 17.5564 26.559 16.4615C26.5532 16.4449 26.547 16.4285 26.5402 16.4121C26.5155 16.3527 24.0894 10.4338 25.2253 7.181C25.3279 6.88753 25.2781 6.56238 25.0927 6.3129C24.9073 6.06342 24.6106 5.92246 24.2998 5.93571C24.2165 5.93933 22.5196 6.03349 20.7197 7.61711C19.1444 4.36684 18.8956 0.913827 18.8931 0.876152C18.8718 0.549569 18.6817 0.257851 18.3916 0.1064C18.1015 -0.045114 17.7535 -0.0341175 17.4733 0.134953C14.9874 1.63659 13.067 3.46919 11.7654 5.58195C10.7145 7.28777 10.0665 9.17198 9.83924 11.1823C9.70279 12.3898 9.73522 13.4941 9.83587 14.4218C9.88248 14.8516 9.45318 15.1748 9.05306 15.0112L6.64052 14.0242C6.47608 13.9569 6.29614 13.9289 6.12069 13.9571C5.75131 14.0166 5.46353 14.2816 5.365 14.6245C5.14607 15.3861 4.98212 16.09 4.86372 16.7764C4.45161 19.1669 4.62024 21.6153 5.35119 23.8569C6.08608 26.1105 7.35423 28.0511 9.01857 29.4691C10.9855 31.145 13.3674 31.9981 15.9648 31.9981C17.3981 31.9981 18.897 31.7383 20.4278 31.2136C22.8561 30.3813 24.7792 28.7327 25.9892 26.4462C26.9948 24.5456 27.4724 22.2686 27.3339 20.0345Z" fill="#EF7700"/>
<path d="M27.3337 20.0252C27.2374 18.6901 26.9912 17.5564 26.5595 16.4615C26.5537 16.4449 26.5475 16.4285 26.5407 16.4121C26.516 16.3527 24.0899 10.4338 25.2258 7.181C25.3284 6.88753 25.2786 6.56238 25.0932 6.3129C24.9078 6.06342 24.6111 5.92246 24.3003 5.93571C24.2263 5.9389 22.8807 6.0135 21.3202 7.1382C20.9971 7.37112 20.54 7.24366 20.3847 6.87684C19.1087 3.8635 18.8959 0.910953 18.8936 0.876152C18.8723 0.549569 18.6822 0.257851 18.3921 0.1064C18.1019 -0.045114 17.754 -0.0341175 17.4738 0.134953C16.9784 0.434232 16.5058 0.746881 16.0557 1.07203V31.9971C17.4615 31.9864 18.9295 31.7273 20.4282 31.2136C22.8565 30.3813 24.7796 28.7327 25.9896 26.4462C26.9954 24.5456 27.4729 22.2686 27.3344 20.0345C27.3341 20.0314 27.3339 20.0282 27.3337 20.0252Z" fill="#EF7700"/>
<path d="M18.5372 16.2497C18.3003 15.8962 17.8551 15.7463 17.4528 15.8855C17.0506 16.0244 16.7924 16.4167 16.8241 16.8411C16.9359 18.3391 16.7861 22.7439 14.7027 23.3152C12.929 23.8017 11.983 22.9801 11.8911 22.8949C11.6611 22.6442 11.3235 22.5492 10.992 22.6287C10.6582 22.709 10.4059 22.9769 10.3169 23.3084C10.2992 23.3742 10.1424 23.962 10.0763 24.3449C9.65241 26.8039 10.4562 29.2406 12.1741 30.7042C13.1817 31.5627 14.397 31.9998 15.7183 31.9998C16.439 31.9998 17.1915 31.8696 17.9585 31.6067C19.1943 31.1831 20.2509 30.287 21.0142 29.0153C21.6527 27.9517 22.024 26.7105 22.033 25.6102C22.0558 22.7792 20.9778 19.8923 18.5372 16.2497Z" fill="#F5D9AE"/>
<path d="M17.4534 15.8855C17.0512 16.0244 16.793 16.4167 16.8247 16.8411C16.9045 17.9105 16.8507 20.4608 16.0557 22.0407V31.9894C16.673 31.9553 17.3108 31.829 17.9591 31.6067C19.1949 31.1831 20.2516 30.2871 21.0149 29.0154C21.6534 27.9517 22.0246 26.7106 22.0336 25.6102C22.0565 22.7791 20.9783 19.8923 18.5379 16.2497C18.3009 15.8962 17.8556 15.7463 17.4534 15.8855Z" fill="#F5D9AE"/>
</svg>
