<svg width="32" height="32" viewBox="0 0 32 32" fill="none" xmlns="http://www.w3.org/2000/svg">
<path fill-rule="evenodd" clip-rule="evenodd" d="M29.1823 4.8408L30.1611 0L31.9993 0.371624L30.7164 6.71605V6.71611H29.2263L25.9152 19.8013C26.9727 20.6621 27.6068 21.967 27.6068 23.3531C27.6068 24.916 26.8188 26.2978 25.6198 27.1238L26.9221 30.1246H28.6328V31.9999H23.9811V30.1246H24.8778L23.8897 27.8476C23.6111 27.9008 23.324 27.9297 23.0302 27.9297H8.47294C7.97431 27.9297 7.48575 27.886 7.0105 27.803L6.00294 30.1246H6.89963V31.9999H2.24795V30.1245H3.95851L5.19719 27.2705C2.1482 25.9871 0.00195312 22.969 0.00195312 19.4588C0.00195312 16.3978 1.5842 13.656 4.23451 12.1245C4.62832 11.8969 5.03376 11.704 5.44694 11.5439V7.50611H5.17163C3.6607 7.50611 2.43145 6.27686 2.43145 4.76593C2.43145 3.96012 2.78364 3.19893 3.39782 2.67731C4.01201 2.15575 4.82007 1.9315 5.61532 2.06193L11.7356 3.06624C12.8207 3.24424 13.6084 4.17162 13.6084 5.27136C13.6084 6.50361 12.6059 7.50605 11.3737 7.50605H10.5929V11.2499C11.3181 11.4407 12.027 11.7301 12.7024 12.1194L21.3104 17.0799L23.8943 6.71617H22.0139V4.8408H29.1823ZM4.30676 4.76587C4.30676 5.24274 4.69469 5.63068 5.17157 5.63061V5.63055H11.3736C11.5717 5.63055 11.7329 5.46943 11.7329 5.27124C11.7329 5.09449 11.6064 4.9453 11.4319 4.91668L5.31157 3.91243C5.26076 3.90418 5.21207 3.90037 5.16576 3.90037C4.89913 3.90037 4.70882 4.02437 4.61176 4.10674C4.49788 4.20343 4.30676 4.41774 4.30676 4.76587ZM8.71762 10.9784V7.50605V7.50599H7.32225V11.0553C7.78531 10.9905 8.25181 10.9646 8.71762 10.9784ZM8.47287 26.0544H23.0302C24.5197 26.0544 25.7315 24.8426 25.7315 23.3531C25.7315 22.3903 25.2133 21.4935 24.379 21.0126L11.7662 13.7442C10.7349 13.15 9.60375 12.8528 8.47287 12.8528C7.33919 12.8528 6.20582 13.1512 5.17282 13.7482C3.10926 14.9407 1.87732 17.0755 1.87732 19.4588C1.87732 23.0956 4.83607 26.0544 8.47287 26.0544ZM23.0004 18.0538L24.242 18.7692L27.2918 6.71611H25.8271L23.0004 18.0538ZM12.2039 21.8527L13.7403 23.389H14.7876V25.2643H11.0629V23.389H11.0881L10.8779 23.1787C10.1856 23.6261 9.36207 23.8871 8.47826 23.8871C6.03333 23.8871 4.04427 21.898 4.04427 19.453C4.04427 17.0081 6.03333 15.019 8.47826 15.019C10.9232 15.019 12.9123 17.0082 12.9123 19.453C12.9123 20.3368 12.6513 21.1604 12.2039 21.8527ZM9.14126 18.79L10.8242 20.473C10.9606 20.1603 11.0368 19.8154 11.0369 19.4531C11.0369 18.0423 9.88913 16.8945 8.47826 16.8945C7.06745 16.8945 5.91964 18.0423 5.91964 19.4531C5.91964 20.864 7.06739 22.0118 8.47826 22.0118C8.8407 22.0118 9.18551 21.9355 9.49813 21.799L7.8152 20.1161L9.14126 18.79Z" fill="white"/>
</svg>
