<svg width="14" height="16" viewBox="0 0 14 16" fill="none" xmlns="http://www.w3.org/2000/svg">
<path fill-rule="evenodd" clip-rule="evenodd" d="M9.08448 2.01637C9.52196 2.85902 10.3281 4.17797 11.6847 5.67626C12.7789 6.88477 13.4064 8.31246 13.4064 9.59331C13.4064 13.126 10.5324 16 6.99976 16C5.293 16 3.68893 15.341 2.48302 14.1443C1.27705 12.9476 0.605896 11.3486 0.593197 9.64198C0.58372 8.36413 0.949355 7.12764 1.65057 6.06617C1.79416 5.84882 2.58292 4.76102 2.61642 4.71482L2.93917 4.26977L3.87741 5.208C4.04894 5.37953 4.2934 5.45341 4.53105 5.40593C4.87 5.33815 5.11466 5.03832 5.11275 4.69302C5.10947 4.09968 5.18775 3.22801 5.57919 2.4451C6.35898 0.885563 7.75064 0.250909 7.80951 0.224667L8.3132 0L8.45423 0.533189C8.45542 0.537693 8.61068 1.10366 9.08448 2.01637ZM3.14401 13.4783C4.17295 14.4994 5.54229 15.0617 6.99979 15.0617C10.015 15.0617 12.4681 12.6086 12.4681 9.59334C12.4681 8.10068 11.4338 6.79722 10.9892 6.3061C8.99308 4.10153 8.09857 2.24723 7.7457 1.34969C7.35554 1.62268 6.79408 2.11358 6.4185 2.86472C6.10994 3.48189 6.04839 4.1968 6.05111 4.68789C6.05546 5.48143 5.49359 6.17035 4.71515 6.32605C4.16885 6.43531 3.6078 6.26538 3.21395 5.87153L3.05384 5.71142C2.79952 6.06413 2.50654 6.47287 2.43351 6.58341C1.83533 7.48886 1.52342 8.54411 1.53156 9.63501C1.54241 11.0923 2.11504 12.4572 3.14401 13.4783ZM5.00903 12.2685L7.95101 7.96025H8.99115L6.04917 12.2685H5.00903ZM8.57864 9.92984C7.92625 9.92984 7.43384 10.3668 7.43384 11.13C7.43384 11.8994 7.92621 12.3302 8.57864 12.3302C9.23107 12.3302 9.72344 11.8994 9.72344 11.13C9.72344 10.3668 9.23104 9.92984 8.57864 9.92984ZM8.57864 11.6655C8.44324 11.6655 8.30784 11.5423 8.30784 11.13C8.30784 10.7176 8.44324 10.5945 8.57864 10.5945C8.71404 10.5945 8.84945 10.7176 8.84945 11.13C8.84945 11.5423 8.71404 11.6655 8.57864 11.6655ZM5.42108 7.89873C6.0735 7.89873 6.56587 8.33571 6.56587 9.09889C6.56587 9.86823 6.0735 10.2991 5.42108 10.2991C4.76866 10.2991 4.27629 9.86823 4.27629 9.09889C4.27629 8.33571 4.76866 7.89873 5.42108 7.89873ZM5.42108 8.56341C5.28568 8.56341 5.15028 8.68652 5.15028 9.09889C5.15028 9.51126 5.28568 9.63437 5.42108 9.63437C5.55648 9.63437 5.69188 9.51126 5.69188 9.09889C5.69188 8.68652 5.55648 8.56341 5.42108 8.56341Z" fill="white"/>
</svg>
