<svg width="16" height="16" viewBox="0 0 16 16" fill="none" xmlns="http://www.w3.org/2000/svg">
<g clip-path="url(#clip0)">
<path d="M12.6845 5.67626C11.3279 4.17797 10.5217 2.85902 10.0842 2.01637C9.61044 1.10366 9.45518 0.537693 9.45399 0.533189L9.31296 0L8.80926 0.224667C8.7504 0.250909 7.35873 0.885563 6.57895 2.4451C6.18751 3.22801 6.10922 4.09968 6.11251 4.69302C6.11441 5.03832 5.86976 5.33815 5.5308 5.40593C5.29316 5.45341 5.04869 5.37953 4.87716 5.208L3.93893 4.26977L3.61618 4.71482C3.58268 4.76102 2.79392 5.84882 2.65032 6.06617C1.94911 7.12764 1.58348 8.36413 1.59295 9.64198C1.60565 11.3486 2.27681 12.9476 3.48278 14.1443C4.68869 15.341 6.29276 16 7.99951 16C11.5322 16 14.4062 13.126 14.4062 9.59331C14.4062 8.31246 13.7786 6.88477 12.6845 5.67626ZM7.99955 15.0617C6.54204 15.0617 5.17271 14.4994 4.14377 13.4783C3.1148 12.4572 2.54217 11.0923 2.53131 9.63501C2.52318 8.54411 2.83508 7.48886 3.43327 6.58341C3.5063 6.47287 3.79928 6.06413 4.05359 5.71142L4.2137 5.87153C4.60755 6.26538 5.16861 6.43531 5.7149 6.32605C6.49334 6.17035 7.05521 5.48143 7.05087 4.68789C7.04814 4.1968 7.1097 3.48189 7.41825 2.86472C7.79383 2.11358 8.3553 1.62268 8.74545 1.34969C9.09833 2.24723 9.99284 4.10153 11.9889 6.3061C12.4336 6.79722 13.4679 8.10068 13.4679 9.59334C13.4679 12.6086 11.0148 15.0617 7.99955 15.0617Z" fill="white"/>
<path d="M8.95077 7.95996L6.00879 12.2682H7.04893L9.99091 7.95996H8.95077Z" fill="white"/>
<path d="M9.5784 9.92969C8.926 9.92969 8.43359 10.3667 8.43359 11.1299C8.43359 11.8992 8.92597 12.33 9.5784 12.33C10.2308 12.33 10.7232 11.8992 10.7232 11.1299C10.7232 10.3667 10.2308 9.92969 9.5784 9.92969ZM9.5784 11.6653C9.44299 11.6653 9.30759 11.5422 9.30759 11.1298C9.30759 10.7175 9.44299 10.5944 9.5784 10.5944C9.7138 10.5944 9.8492 10.7175 9.8492 11.1298C9.8492 11.5422 9.7138 11.6653 9.5784 11.6653Z" fill="white"/>
<path d="M7.56595 9.0986C7.56595 8.33542 7.07358 7.89844 6.42116 7.89844C5.76874 7.89844 5.27637 8.33542 5.27637 9.0986C5.27637 9.86794 5.76874 10.2988 6.42116 10.2988C7.07358 10.2988 7.56595 9.86794 7.56595 9.0986ZM6.15036 9.0986C6.15036 8.68623 6.28576 8.56312 6.42116 8.56312C6.55656 8.56312 6.69196 8.68623 6.69196 9.0986C6.69196 9.51097 6.55656 9.63408 6.42116 9.63408C6.28576 9.63408 6.15036 9.51097 6.15036 9.0986Z" fill="white"/>
</g>
<defs>
<clipPath id="clip0">
<rect width="16" height="16" fill="white"/>
</clipPath>
</defs>
</svg>
