<svg width="56" height="56" viewBox="0 0 56 56" fill="none" xmlns="http://www.w3.org/2000/svg">
<path d="M55.1954 52.6661H0.804598C0.360138 52.6661 0 52.306 0 51.8615V4.13858C0 3.69412 0.360138 3.33398 0.804598 3.33398H49.6186C50.063 3.33398 50.4232 3.69412 50.4232 4.13858V27.9312H55.1954C55.6399 27.9312 56 28.2913 56 28.7358V51.8615C56 52.306 55.6399 52.6661 55.1954 52.6661ZM14.6437 51.0569H54.3908V29.5404H37.7514C37.3069 29.5404 36.9468 29.1802 36.9468 28.7358V27.1868H34.9604C34.516 27.1868 34.1558 26.8266 34.1558 26.3822C34.1558 25.9377 34.516 25.5776 34.9604 25.5776H36.9468V20.3744C36.9468 19.9299 37.3069 19.5698 37.7514 19.5698C38.1959 19.5698 38.556 19.9299 38.556 20.3744V27.9312H43.232V4.94318H38.556V10.8264C38.556 11.2709 38.1959 11.631 37.7514 11.631C37.3069 11.631 36.9468 11.2709 36.9468 10.8264V8.35886H24.2989C23.8544 8.35886 23.4943 7.99872 23.4943 7.55426V4.94318H20.5568V8.6807C20.5568 9.12516 20.1967 9.48529 19.7522 9.48529C19.3078 9.48529 18.9476 9.12516 18.9476 8.6807V4.94318H18.0767V7.01808C18.0767 7.46254 17.7166 7.82267 17.2721 7.82267H17.0214C17.1653 8.15127 17.2454 8.51431 17.2454 8.89536V10.9873C17.2454 12.4662 16.0424 13.6692 14.5635 13.6692C13.0847 13.6692 11.8817 12.4662 11.8817 10.9873V8.89536C11.8817 8.51398 11.9618 8.15127 12.1057 7.82267H11.8549C11.4105 7.82267 11.0503 7.46254 11.0503 7.01808V4.94318H8.12644V15.6002C8.12644 16.0447 7.7663 16.4048 7.32184 16.4048H6.27586V20.9228H18.9476V17.2094C18.9476 16.765 19.3078 16.4048 19.7522 16.4048C20.1967 16.4048 20.5568 16.765 20.5568 17.2094V25.5772H22.5432C22.9877 25.5772 23.3478 25.9374 23.3478 26.3818C23.3478 26.8263 22.9877 27.1864 22.5432 27.1864H20.5568V31.129C20.5568 31.5734 20.1967 31.9336 19.7522 31.9336C19.3078 31.9336 18.9476 31.5734 18.9476 31.129V22.532H7.45605V45.6388H13.8391C14.2835 45.6388 14.6437 45.9989 14.6437 46.4434V51.0569ZM1.6092 51.0569H13.0345V47.248H6.65145C6.20699 47.248 5.84685 46.8878 5.84685 46.4434V32.4434H1.6092V51.0569ZM1.6092 30.8342H5.84685V22.532H1.6092V30.8342ZM47.6322 27.9312H48.814V4.94318H47.6322V27.9312ZM44.8412 27.9312H46.023V4.94318H44.8412V27.9312ZM1.6092 20.6425H4.66667V16.4048H1.6092V20.6425ZM5.47126 14.7956H6.51724V4.94318H1.6092V14.7956H5.47126ZM14.5632 7.82267C13.9717 7.82267 13.4905 8.30415 13.4905 8.89536V10.9873C13.4905 11.5789 13.9717 12.06 14.5632 12.06C15.1548 12.06 15.6359 11.5789 15.6359 10.9873V8.89536C15.6359 8.30415 15.1548 7.82267 14.5632 7.82267ZM25.1034 6.74966H36.9468V4.94318H25.1034V6.74966ZM14.5632 6.21348H16.4675V4.94318H12.6589V6.21348H14.5632ZM32.1698 48.6692H25.7185C25.274 48.6692 24.9139 48.3091 24.9139 47.8646V33.1205C24.9139 32.6761 25.274 32.3159 25.7185 32.3159H32.1698C32.6142 32.3159 32.9743 32.6761 32.9743 33.1205V47.8649C32.9743 48.3091 32.6139 48.6692 32.1698 48.6692ZM26.5231 47.06H31.3652V46.2554H28.5095C28.065 46.2554 27.7049 45.8953 27.7049 45.4508V35.5343C27.7049 35.0898 28.065 34.7297 28.5095 34.7297H31.3652V33.9251H26.5231V47.06ZM29.3141 44.6462H31.3652V36.3389H29.3141V44.6462ZM49.6186 48.1864C49.1741 48.1864 48.814 47.8263 48.814 47.3819V33.5428C48.814 33.0983 49.1741 32.7382 49.6186 32.7382C50.063 32.7382 50.4232 33.0983 50.4232 33.5428V36.0389C50.8416 36.0673 51.1724 36.4158 51.1724 36.8416V44.083C51.1724 44.5088 50.8419 44.8573 50.4232 44.8857V47.3819C50.4232 47.8263 50.063 48.1864 49.6186 48.1864ZM41.8619 47.2209C39.303 47.2209 37.2986 44.4644 37.2986 40.9451C37.2986 37.4258 39.303 34.6692 41.8619 34.6692C44.4209 34.6692 46.4253 37.4258 46.4253 40.9451C46.4253 44.4644 44.4209 47.2209 41.8619 47.2209ZM41.8619 36.2784C40.2605 36.2784 38.9078 38.4154 38.9078 40.9451C38.9078 43.4747 40.2608 45.6117 41.8619 45.6117C43.4631 45.6117 44.8161 43.4747 44.8161 40.9451C44.8161 38.4154 43.4631 36.2784 41.8619 36.2784Z" fill="white"/>
</svg>
