<svg width="24" height="24" viewBox="0 0 24 24" fill="none" xmlns="http://www.w3.org/2000/svg">
<g clip-path="url(#clip0)">
<path d="M15.9029 9.79239C15.4119 9.79239 14.9572 9.95036 14.5866 10.2181V6.95434C14.5866 6.08134 13.8763 5.37109 13.0033 5.37109H5.15339C4.28039 5.37109 3.57014 6.08134 3.57014 6.95434V10.2181C3.19955 9.95036 2.74477 9.79239 2.2538 9.79239C1.01105 9.79239 0 10.8043 0 12.048C0 13.0495 0.655547 13.9006 1.55967 14.1943V21.4079C1.55967 21.6667 1.76958 21.8766 2.02842 21.8766H4.03889C4.29773 21.8766 4.50764 21.6667 4.50764 21.4079V21.0091H13.6491V21.4079C13.6491 21.6667 13.859 21.8766 14.1178 21.8766H16.1283C16.3871 21.8766 16.597 21.6667 16.597 21.4079V14.1942C17.5012 13.9006 18.1567 13.0495 18.1567 12.048C18.1567 10.8043 17.1456 9.79239 15.9029 9.79239ZM4.50764 14.5034C4.50764 14.1178 4.82133 13.804 5.20697 13.804H12.9497C13.3353 13.804 13.6491 14.1178 13.6491 14.5034V15.2461H4.50764V14.5034ZM4.50764 6.95434C4.50764 6.59823 4.79733 6.30859 5.15339 6.30859H13.0033C13.3594 6.30859 13.649 6.59828 13.649 6.95434V13.0236C13.4368 12.9229 13.1997 12.8665 12.9496 12.8665H5.20697C4.95694 12.8665 4.71984 12.9229 4.50764 13.0236V6.95434ZM3.57014 20.9391H2.49717V14.2781C2.75719 14.2028 2.83617 13.9686 2.83973 13.8392C2.84175 13.7654 2.82717 13.3947 2.34356 13.3472C2.27789 13.3407 2.18311 13.3342 2.05378 13.3271C2.02073 13.3253 1.98787 13.3271 1.95577 13.3321C1.37306 13.1965 0.9375 12.6723 0.9375 12.048C0.9375 11.3212 1.52798 10.7299 2.2538 10.7299C2.97961 10.7299 3.57014 11.3212 3.57014 12.048V20.9391ZM4.50764 20.0716V16.1836H13.6491V20.0716H4.50764ZM16.2009 13.3322C16.1688 13.3271 16.1359 13.3255 16.1029 13.3272C15.9735 13.3342 15.8788 13.3407 15.813 13.3472C15.3295 13.3948 15.3149 13.7654 15.3169 13.8392C15.3204 13.9687 15.3995 14.2029 15.6595 14.2781V20.9392H14.5865V12.048C14.5865 11.3212 15.177 10.7299 15.9028 10.7299C16.6286 10.7299 17.2191 11.3212 17.2191 12.048C17.2192 12.6723 16.7836 13.1965 16.2009 13.3322Z" fill="white"/>
<path d="M23.9931 8.10373L23.0362 2.51267C22.9977 2.28758 22.8026 2.12305 22.5742 2.12305H18.4725C18.2442 2.12305 18.049 2.28763 18.0105 2.51267L17.0536 8.10369C17.0303 8.23986 17.0682 8.37941 17.1573 8.48502C17.2463 8.59062 17.3775 8.65156 17.5156 8.65156H20.0547V18.9526H18.8823C18.1287 18.9526 17.5156 19.5657 17.5156 20.3193V21.4085C17.5156 21.6673 17.7255 21.8773 17.9844 21.8773H23.0624C23.3212 21.8773 23.5311 21.6673 23.5311 21.4085V20.3193C23.5311 19.5657 22.9181 18.9526 22.1645 18.9526H20.9921V8.65156H23.5311C23.6693 8.65156 23.8004 8.59062 23.8895 8.48502C23.9785 8.37945 24.0165 8.23991 23.9931 8.10373ZM22.5936 20.3193V20.9398H18.4531V20.3193C18.4531 20.0826 18.6456 19.8901 18.8822 19.8901H22.1645C22.4011 19.8901 22.5936 20.0826 22.5936 20.3193ZM18.0714 7.71406L18.8678 3.06055H22.1789L22.9753 7.71406H18.0714Z" fill="white"/>
</g>
<defs>
<clipPath id="clip0">
<rect width="24" height="24" fill="white"/>
</clipPath>
</defs>
</svg>
