<svg width="32" height="32" viewBox="0 0 32 32" fill="none" xmlns="http://www.w3.org/2000/svg">
<path fill-rule="evenodd" clip-rule="evenodd" d="M3.4286 0H28.5715C30.4621 0 32 1.53798 32.0001 3.4286V28.5715C32.0001 30.4621 30.4621 32.0001 28.5715 32.0001H3.4286C1.53798 32.0001 0 30.4621 0 28.5715V3.4286C0 1.53798 1.53798 0 3.4286 0ZM28.5715 29.7143C29.202 29.7143 29.7143 29.202 29.7143 28.5715V3.4286C29.7143 2.79804 29.202 2.28576 28.5715 2.28576H3.4286C2.79804 2.28576 2.28576 2.79804 2.28576 3.4286V28.5715C2.28576 29.202 2.79804 29.7143 3.4286 29.7143H28.5715ZM10.2857 6.8571H17.1429C20.2935 6.8571 22.8571 9.4207 22.8571 12.5714C22.8571 15.7221 20.2935 18.2857 17.1429 18.2857H11.4286V25.1428H9.1429V7.99994C9.1429 7.36824 9.65405 6.8571 10.2857 6.8571ZM11.4286 16H17.1429C19.0335 16 20.5714 14.4621 20.5714 12.5715C20.5714 10.6808 19.0335 9.14286 17.1429 9.14286H11.4286V16Z" fill="white"/>
</svg>
