<svg width="12" height="12" viewBox="0 0 12 12" fill="none" xmlns="http://www.w3.org/2000/svg">
<path d="M9.98297 2.08643C9.06687 0.76057 7.61499 0 5.99989 0C4.38479 0 2.9329 0.76057 2.0168 2.08643C1.1052 3.40559 0.894707 5.07567 1.45261 6.55118C1.60184 6.95412 1.83905 7.34559 2.15597 7.71244L5.68046 11.8523C5.76017 11.946 5.87696 12 5.99989 12C6.12282 12 6.23961 11.946 6.31932 11.8523L9.84282 7.71356C10.1611 7.34461 10.3981 6.95355 10.546 6.55385C11.1051 5.07567 10.8946 3.40559 9.98297 2.08643ZM9.76032 6.25999C9.6462 6.56838 9.45989 6.87328 9.20689 7.16655C9.20618 7.16726 9.20548 7.16796 9.20492 7.1688L5.99989 10.9333L2.79289 7.16644C2.54002 6.87342 2.35371 6.56855 2.23847 6.2572C1.77708 5.03693 1.95218 3.65609 2.70701 2.56364C3.46421 1.4677 4.66449 0.839156 5.99989 0.839156C7.33526 0.839156 8.5354 1.46768 9.29262 2.56364C10.0476 3.65609 10.2228 5.03693 9.76032 6.25999Z" fill="white"/>
<path d="M6.00005 2.48926C4.70452 2.48926 3.65039 3.54324 3.65039 4.83892C3.65039 6.13459 4.70438 7.18857 6.00005 7.18857C7.29572 7.18857 8.34971 6.13459 8.34971 4.83892C8.34971 3.54338 7.29558 2.48926 6.00005 2.48926ZM6.00005 6.34939C5.16717 6.34939 4.48955 5.67177 4.48955 4.83889C4.48955 4.00602 5.16717 3.32839 6.00005 3.32839C6.83292 3.32839 7.51055 4.00602 7.51055 4.83889C7.51055 5.67177 6.83292 6.34939 6.00005 6.34939Z" fill="white"/>
</svg>
