<svg width="18" height="20" viewBox="0 0 18 20" fill="none" xmlns="http://www.w3.org/2000/svg">
<path d="M16.8792 7.98524L3.38974 0.307871C1.95884 -0.509026 0.5 0.384372 0.5 1.99089V18.0182C0.5 19.3792 1.38608 19.9999 2.20963 19.9999C2.59746 19.9999 2.9926 19.8775 3.38508 19.6387L16.9351 11.3446C17.6162 10.9262 17.9988 10.3069 17.9868 9.64497C17.9755 8.98241 17.5723 8.37705 16.8792 7.98524ZM16.027 9.86317L2.47772 18.1552C2.38658 18.2111 2.31474 18.239 2.26551 18.253C2.2522 18.2038 2.2389 18.1279 2.2389 18.0182V1.99156C2.2389 1.82658 2.26883 1.74343 2.26883 1.72281C2.32205 1.72613 2.41518 1.75341 2.53226 1.81993L16.0197 9.49729C16.186 9.59242 16.2352 9.67491 16.2512 9.65695C16.2426 9.67957 16.186 9.76405 16.027 9.86317Z" fill="white"/>
</svg>
