<svg width="32" height="32" viewBox="0 0 32 32" fill="none" xmlns="http://www.w3.org/2000/svg">
<g clip-path="url(#clip0)">
<path d="M31.0625 30.0628H29.7044L27.1511 24.956C26.9922 24.6384 26.6676 24.4378 26.3125 24.4378H20.2273L15.8495 11.3725L25.6294 8.10315C26.1893 7.91596 26.44 7.26208 26.1457 6.74815C23.6235 2.34327 18.4358 0.0418347 12.5882 1.61871L12.2821 0.703085C12.118 0.212085 11.5869 -0.0531027 11.0957 0.111147C10.6047 0.275335 10.3397 0.80646 10.5039 1.29752L10.8099 2.21315C5.19631 4.46708 2.42794 9.42152 3.06269 14.4646C3.13687 15.0538 3.73156 15.4231 4.29012 15.2367L14.0712 11.967L18.2499 24.4378H9.11487L1.54781 18.9895C1.12756 18.687 0.541688 18.7823 0.239187 19.2025C-0.063375 19.6227 0.0320625 20.2086 0.452188 20.5111L7.71088 25.7374L6.31712 30.0628H0.9375C0.41975 30.0628 0 30.4826 0 31.0003C0 31.5181 0.41975 31.9378 0.9375 31.9378H31.0625C31.5803 31.9378 32 31.5181 32 31.0003C32 30.4826 31.5803 30.0628 31.0625 30.0628V30.0628ZM12.2843 3.66783C12.2844 3.66777 12.2845 3.66777 12.2846 3.66771C12.2909 3.66858 13.3979 3.15196 15.3693 5.06746C16.388 6.05727 17.2881 7.3754 17.879 8.71702L10.8514 11.0663C10.1079 7.8959 10.7364 4.1859 12.2843 3.66783V3.66783ZM23.8842 6.70958L19.6636 8.12046C18.8546 6.22027 17.4604 4.25565 15.8541 3.00383C19.0341 2.89383 21.9725 4.13696 23.8842 6.70958V6.70958ZM9.03356 5.28358C8.49906 7.26408 8.57531 9.67233 9.06819 11.6624L4.84625 13.0738C4.82706 9.94627 6.35863 7.15521 9.03356 5.28358ZM25.7331 26.3128L27.6081 30.0628H22.1121L20.8556 26.3128H25.7331ZM9.49537 26.3128H18.8781L20.1346 30.0628H8.28706L9.49537 26.3128Z" fill="white"/>
</g>
<defs>
<clipPath id="clip0">
<rect width="32" height="32" fill="white"/>
</clipPath>
</defs>
</svg>
