<svg width="56" height="56" viewBox="0 0 56 56" fill="none" xmlns="http://www.w3.org/2000/svg">
<g clip-path="url(#clip0)">
<path d="M5.83268 30.3336C5.18868 30.3336 4.66602 29.8109 4.66602 29.1669V24.7919C4.66602 15.6523 10.007 7.83559 18.274 4.87926C18.883 4.66926 19.548 4.97726 19.765 5.58626C19.982 6.19293 19.667 6.86026 19.058 7.07726C11.7314 9.69526 6.99935 16.6509 6.99935 24.7919V29.1669C6.99935 29.8109 6.47668 30.3336 5.83268 30.3336Z" fill="white"/>
<path d="M45.0336 21.077C44.5016 21.077 44.0233 20.7154 43.8996 20.1764C43.8016 19.761 43.6966 19.3667 43.587 18.9864C42.7376 16.0417 41.543 14.1284 38.8526 11.3984C36.7573 9.27503 34.8113 7.98936 32.3473 7.1027C31.7406 6.88336 31.4256 6.2137 31.645 5.60703C31.8666 5.0027 32.5293 4.6947 33.1406 4.9047C35.9523 5.9197 38.1573 7.37103 40.514 9.75803C43.4796 12.7657 44.8703 15.0104 45.8293 18.34C45.9483 18.7554 46.0626 19.1847 46.17 19.642C46.317 20.2697 45.9296 20.8974 45.302 21.0444C45.211 21.0677 45.12 21.077 45.0336 21.077Z" fill="white"/>
<path d="M19.8333 35H3.5C1.57033 35 0 33.4297 0 31.5C0 29.5703 1.57033 28 3.5 28H24.5C25.144 28 25.6667 28.5227 25.6667 29.1667C25.6667 29.8107 25.144 30.3333 24.5 30.3333H3.5C2.85833 30.3333 2.33333 30.8583 2.33333 31.5C2.33333 32.1417 2.85833 32.6667 3.5 32.6667H19.8333C20.4773 32.6667 21 33.1893 21 33.8333C21 34.4773 20.4773 35 19.8333 35Z" fill="white"/>
<path d="M32.6667 16.3333C32.0227 16.3333 31.5 15.8107 31.5 15.1667V5.83333C31.5 3.90367 29.9297 2.33333 28 2.33333H23.3333C21.4037 2.33333 19.8333 3.90367 19.8333 5.83333V15.1667C19.8333 15.8107 19.3107 16.3333 18.6667 16.3333C18.0227 16.3333 17.5 15.8107 17.5 15.1667V5.83333C17.5 2.61567 20.1157 0 23.3333 0H28C31.2177 0 33.8333 2.61567 33.8333 5.83333V15.1667C33.8333 15.8107 33.3107 16.3333 32.6667 16.3333Z" fill="white"/>
<path d="M40.8327 56.0004C32.47 56.0004 25.666 49.1963 25.666 40.8337C25.666 32.471 32.47 25.667 40.8327 25.667C49.1953 25.667 55.9993 32.471 55.9993 40.8337C55.9993 49.1963 49.1953 56.0004 40.8327 56.0004ZM40.8327 28.0003C33.758 28.0003 27.9993 33.759 27.9993 40.8337C27.9993 47.9083 33.758 53.667 40.8327 53.667C47.9073 53.667 53.666 47.9083 53.666 40.8337C53.666 33.759 47.9073 28.0003 40.8327 28.0003Z" fill="white"/>
<path d="M38.4999 46.6662C38.1896 46.6662 37.8933 46.5425 37.6739 46.3255L33.0073 41.6589C32.5523 41.2039 32.5523 40.4642 33.0073 40.0092C33.4623 39.5542 34.2019 39.5542 34.6569 40.0092L38.4416 43.7938L45.7869 35.3985C46.2116 34.9109 46.9489 34.8665 47.4319 35.2889C47.9173 35.7135 47.9663 36.4485 47.5416 36.9339L39.3749 46.2672C39.1626 46.5098 38.8593 46.6545 38.5373 46.6662C38.5256 46.6662 38.5139 46.6662 38.4999 46.6662Z" fill="white"/>
</g>
<defs>
<clipPath id="clip0">
<rect width="56" height="56" fill="white"/>
</clipPath>
</defs>
</svg>
