<svg width="32" height="32" viewBox="0 0 32 32" fill="none" xmlns="http://www.w3.org/2000/svg">
<g clip-path="url(#clip0)">
<path d="M25.3376 12.6776C24.9615 12.2056 24.961 11.5457 25.3363 11.0729L25.8284 10.4529C26.043 10.1826 25.9978 9.7895 25.7274 9.57494C25.4571 9.36038 25.064 9.4055 24.8494 9.67594L24.3572 10.2959C23.6182 11.227 23.6193 12.5267 24.3598 13.4564L24.8455 14.0663C24.969 14.2212 25.151 14.3019 25.3348 14.3019C25.4713 14.3019 25.6087 14.2574 25.7238 14.1658C25.9938 13.9508 26.0383 13.5576 25.8233 13.2876L25.3376 12.6776Z" fill="white"/>
<path d="M30.2666 10.8519L29.7809 10.2421C29.4049 9.76998 29.4043 9.1101 29.7796 8.63742L30.2717 8.01742C30.4863 7.74704 30.4411 7.35398 30.1707 7.13935C29.9004 6.92485 29.5074 6.96998 29.2927 7.24029L28.8006 7.86029C28.0616 8.79135 28.0627 10.091 28.8033 11.0209L29.2889 11.6307C29.665 12.1028 29.6655 12.7627 29.2903 13.2355C29.0757 13.5059 29.1209 13.8989 29.3913 14.1135C29.5063 14.2047 29.6433 14.249 29.7794 14.249C29.9636 14.249 30.146 14.168 30.2694 14.0125C31.0083 13.0815 31.0072 11.7818 30.2666 10.8519Z" fill="white"/>
<path d="M3.19628 13.2876L2.71053 12.6776C2.33447 12.2056 2.33397 11.5457 2.70922 11.0729L3.20141 10.4529C3.41603 10.1826 3.37078 9.78951 3.10041 9.57495C2.83003 9.36032 2.43691 9.40557 2.22241 9.67595L1.73028 10.2959C0.991282 11.227 0.992345 12.5266 1.73291 13.4564L2.21859 14.0663C2.59466 14.5384 2.59522 15.1983 2.21997 15.671C2.00534 15.9414 2.05059 16.3344 2.32097 16.549C2.43584 16.6403 2.57297 16.6845 2.70909 16.6845C2.89322 16.6845 3.07566 16.6035 3.19903 16.4481C3.93791 15.5169 3.93678 14.2173 3.19628 13.2876Z" fill="white"/>
<path d="M7.54455 7.13967C7.2743 6.92486 6.88124 6.96986 6.66643 7.23998L6.64843 7.26261C6.43368 7.53292 6.47861 7.92598 6.7488 8.14079C6.8638 8.23217 7.00105 8.27654 7.1373 8.27654C7.3213 8.27654 7.50355 8.19567 7.62686 8.04042L7.64486 8.01779C7.85968 7.74754 7.81474 7.35448 7.54455 7.13967Z" fill="white"/>
<path d="M7.63996 10.8512L7.15428 10.2414C7.0424 10.1009 6.96246 9.94213 6.91665 9.76957C6.82809 9.43594 6.48596 9.23719 6.15234 9.32576C5.81871 9.41432 5.62009 9.75657 5.70853 10.0901C5.7989 10.4308 5.9564 10.7436 6.17659 11.0201L6.66228 11.6299C7.03834 12.1021 7.0389 12.7619 6.66365 13.2346C6.44903 13.5049 6.49428 13.898 6.76459 14.1126C6.87953 14.2038 7.01659 14.2481 7.15278 14.2481C7.3369 14.2481 7.51934 14.1671 7.64271 14.0117C8.38165 13.0807 8.38059 11.781 7.63996 10.8512Z" fill="white"/>
<path d="M29.6739 18.2511L23.6932 18.251C23.4654 16.7295 22.419 15.4183 20.9462 14.8801L18.1698 13.8655C18.126 13.8492 18.11 13.825 18.1087 13.8229V12.6939L19.2267 12.0529C19.2381 12.0464 19.2492 12.0395 19.2602 12.0323C19.8513 11.6419 20.2393 10.9512 20.2979 10.1848C20.2992 10.169 20.2997 10.153 20.2997 10.1372V8.72542C20.5078 8.6413 20.7027 8.51498 20.871 8.34655L21.0505 8.16711C22.0123 7.2053 22.0123 5.6403 21.0505 4.67848L18.3243 1.9523C18.0828 1.09817 17.445 0.427733 16.5963 0.146921C15.5615 -0.195517 14.4399 0.0706084 13.6692 0.841296L11.186 3.32461C10.4565 4.05398 10.0548 5.0238 10.0548 6.05536C10.0548 7.08692 10.4565 8.05673 11.1859 8.78611L11.6771 9.2773V10.1371C11.6771 10.153 11.6777 10.1689 11.6789 10.1847C11.7377 10.954 12.1232 11.6447 12.7101 12.0322C12.7213 12.0396 12.7327 12.0466 12.7443 12.0533L13.8672 12.6952L13.8676 13.8197C13.866 13.8249 13.8499 13.849 13.81 13.864L11.0303 14.88C9.55766 15.4182 8.51128 16.7294 8.28347 18.2509L2.30072 18.2508C2.13497 18.2508 1.97597 18.3167 1.85884 18.4339C1.74166 18.5511 1.67578 18.71 1.67578 18.8758V31.375C1.67578 31.7202 1.95559 32 2.30072 32H29.6739C30.0191 32 30.2988 31.7201 30.2988 31.375V18.8761C30.2988 18.531 30.019 18.2511 29.6739 18.2511ZM18.248 3.64386L20.1665 5.56242C20.641 6.03686 20.641 6.80892 20.1666 7.28336L19.9872 7.4628C19.8014 7.64861 19.4992 7.64861 19.3134 7.4628L17.0317 5.18111L17.645 4.56786C17.9138 4.29898 18.116 3.98386 18.248 3.64386ZM12.3063 8.13892L12.0697 7.90223C11.5763 7.40892 11.3047 6.75298 11.3047 6.0553C11.3046 5.35773 11.5763 4.7018 12.0697 4.20848L14.553 1.72517C14.8622 1.41586 15.2717 1.25073 15.6923 1.25073C15.8629 1.25073 16.0353 1.27792 16.2036 1.33361C16.6745 1.48942 17.024 1.87055 17.1385 2.35317C17.253 2.83573 17.1119 3.3333 16.7612 3.68405L12.3063 8.13892ZM13.3844 10.9795C13.1341 10.8065 12.9605 10.477 12.9269 10.1112V9.28592L16.1479 6.06492L18.4295 8.34661C18.611 8.52811 18.8234 8.66023 19.0497 8.74386V10.1111C19.0162 10.4744 18.84 10.804 18.5853 10.9798L16.3935 12.2366C16.3821 12.2431 16.371 12.25 16.36 12.2572C16.1237 12.4133 15.8528 12.4132 15.6165 12.2572C15.6053 12.2499 15.594 12.2429 15.5823 12.2362L13.3844 10.9795ZM6.23791 30.7501H2.92566V28.6252H6.23791V30.7501ZM6.23791 27.3754H2.92566V23.2506H6.23791V27.3754ZM6.23791 22.0007H2.92566V19.5009H6.23791V22.0007ZM10.8002 30.7501H7.48791V28.6252H10.8002V30.7501ZM10.8002 27.3754H7.48791V23.2506H10.8002V27.3754ZM10.8002 22.0007H7.48791V19.5009L10.8002 19.5009V22.0007ZM15.3623 30.7501H12.05V28.6252H15.3623V30.7501V30.7501ZM15.3623 27.3754H12.05V23.2506H15.3623V27.3754V27.3754ZM15.3623 22.0007H12.05V19.5009H15.3623V22.0007V22.0007ZM19.9245 30.7501H16.6123V28.6252H19.9245V30.7501ZM19.9245 27.3754H16.6123V23.2506H19.9245V27.3754ZM19.9245 22.0007H16.6123V19.5009L19.9245 19.501V22.0007ZM20.5494 17.2719C20.2042 17.2719 19.9245 17.5517 19.9245 17.8968V18.2511L12.05 18.251V17.8968C12.05 17.5517 11.7702 17.2719 11.425 17.2719C11.0798 17.2719 10.8001 17.5517 10.8001 17.8968V18.251H9.55303C9.76653 17.2555 10.4791 16.4123 11.4593 16.054L14.243 15.0365C14.774 14.8384 15.117 14.362 15.117 13.8229V13.4097C15.3935 13.5519 15.6907 13.6242 15.9883 13.6242C16.2856 13.6242 16.5825 13.552 16.8587 13.4101V13.8229C16.8587 14.3621 17.2019 14.8385 17.7368 15.038L20.5171 16.0541C21.4975 16.4124 22.21 17.2556 22.4235 18.2511H21.1743V17.8968C21.1744 17.5517 20.8946 17.2719 20.5494 17.2719ZM24.4867 30.7501H21.1745V28.6252H24.4868V30.7501H24.4867ZM24.4867 27.3754H21.1745V23.2506H24.4868V27.3754H24.4867ZM24.4867 22.0007H21.1745V19.501H24.4868V22.0007H24.4867ZM29.0489 30.7501H25.7367V28.6252H29.0489V30.7501ZM29.0489 27.3754H25.7367V23.2506H29.0489V27.3754ZM29.0489 22.0007H25.7367V19.501H29.0489V22.0007Z" fill="white"/>
<path d="M27.8354 24.8765C27.7192 24.7603 27.5579 24.6934 27.3936 24.6934C27.2292 24.6934 27.0679 24.7602 26.9517 24.8765C26.8354 24.9927 26.7686 25.154 26.7686 25.3184C26.7686 25.4827 26.8354 25.644 26.9517 25.7602C27.0679 25.8764 27.2292 25.9434 27.3936 25.9434C27.5579 25.9434 27.7192 25.8765 27.8354 25.7602C27.9517 25.644 28.0186 25.4827 28.0186 25.3184C28.0186 25.154 27.9517 24.9927 27.8354 24.8765Z" fill="white"/>
<path d="M18.7104 24.8765C18.5942 24.7603 18.4329 24.6934 18.2686 24.6934C18.1042 24.6934 17.9429 24.7602 17.8267 24.8765C17.7104 24.9927 17.6436 25.154 17.6436 25.3184C17.6436 25.4827 17.7104 25.644 17.8267 25.7602C17.9429 25.8764 18.1042 25.9434 18.2686 25.9434C18.4329 25.9434 18.5942 25.8765 18.7104 25.7602C18.8267 25.644 18.8936 25.4827 18.8936 25.3184C18.8936 25.154 18.8267 24.9927 18.7104 24.8765Z" fill="white"/>
<path d="M9.58641 24.8765C9.47016 24.7603 9.30891 24.6934 9.14453 24.6934C8.98016 24.6934 8.81891 24.7602 8.70266 24.8765C8.58641 24.9927 8.51953 25.154 8.51953 25.3184C8.51953 25.4827 8.58641 25.644 8.70266 25.7602C8.81891 25.8764 8.98016 25.9434 9.14453 25.9434C9.30891 25.9434 9.47016 25.8765 9.58641 25.7602C9.70266 25.644 9.76953 25.4827 9.76953 25.3184C9.76953 25.154 9.70259 24.9927 9.58641 24.8765Z" fill="white"/>
<path d="M25.7438 15.5479C25.4735 15.3331 25.0805 15.3781 24.8656 15.6482L24.8476 15.6708C24.6329 15.9411 24.6778 16.3342 24.948 16.549C25.063 16.6404 25.2003 16.6847 25.3365 16.6847C25.5205 16.6847 25.7028 16.6039 25.8261 16.4486L25.8441 16.426C26.0588 16.1558 26.0139 15.7627 25.7438 15.5479Z" fill="white"/>
</g>
<defs>
<clipPath id="clip0">
<rect width="32" height="32" fill="white"/>
</clipPath>
</defs>
</svg>
