<svg width="32" height="32" viewBox="0 0 32 32" fill="none" xmlns="http://www.w3.org/2000/svg">
<path d="M28.7898 5.18359C27.1821 4.63135 25.8943 3.33618 25.3445 1.71899C24.9949 0.690674 24.0322 0 22.9487 0H8.98877C7.90552 0 6.94263 0.690674 6.59302 1.71899C6.04321 3.33618 4.75537 4.63135 3.14771 5.18359C2.12476 5.53516 1.4375 6.50073 1.4375 7.58643V11.1179C1.4375 15.7263 2.81836 20.1636 5.43091 23.9502C7.82129 27.4148 11.1152 30.126 14.957 31.791C15.2786 31.9304 15.6235 32 15.9688 32C16.3137 32 16.6587 31.9304 16.9802 31.791C20.822 30.1262 24.116 27.4148 26.5063 23.9502C29.1189 20.1636 30.5 15.7261 30.5 11.1179V7.58643C30.5 6.50073 29.8127 5.53516 28.7898 5.18359V5.18359ZM28.625 11.1179C28.625 15.344 27.3586 19.4131 24.9629 22.8855C22.7722 26.0608 19.7539 28.5454 16.2346 30.0706C16.0659 30.1438 15.8718 30.144 15.7026 30.0706C12.1831 28.5454 9.16504 26.0608 6.97437 22.8855C4.57886 19.4133 3.3125 15.3442 3.3125 11.1179V7.58643C3.3125 7.30127 3.49121 7.04834 3.75708 6.95703C5.90918 6.21753 7.63306 4.48511 8.36816 2.32251C8.45923 2.05493 8.7085 1.875 8.98877 1.875H22.9487C23.2288 1.875 23.4783 2.05493 23.5693 2.32251C24.3044 4.48511 26.0283 6.21753 28.1804 6.95703C28.4463 7.04834 28.625 7.30127 28.625 7.58643V11.1179Z" fill="white"/>
<path d="M19.9524 12.1562H19.8887V9.48633C19.8887 7.32495 18.1301 5.56641 15.9688 5.56641C13.8074 5.56641 12.0488 7.32495 12.0488 9.48633V12.1562H11.9851C10.7402 12.1562 9.72754 13.1692 9.72754 14.4141V19.8096C9.72754 22.1279 11.6138 24.0144 13.9319 24.0144H18.0056C20.324 24.0144 22.21 22.1279 22.21 19.8096V14.4141C22.21 13.1692 21.1973 12.1562 19.9524 12.1562V12.1562ZM13.9238 9.48633C13.9238 8.35889 14.8413 7.44141 15.9688 7.44141C17.0962 7.44141 18.0137 8.35889 18.0137 9.48633V12.1565H13.9238V9.48633ZM20.335 19.8096C20.335 21.0942 19.29 22.1392 18.0056 22.1392H13.9319C12.6475 22.1392 11.6025 21.0942 11.6025 19.8096V14.4141C11.6025 14.2031 11.7742 14.0315 11.9851 14.0315H19.9524C20.1633 14.0315 20.335 14.2031 20.335 14.4141V19.8096Z" fill="white"/>
<path d="M15.9688 16.2617C15.4509 16.2617 15.0312 16.6814 15.0312 17.1992V18.9704C15.0312 19.4883 15.4509 19.9079 15.9688 19.9079C16.4866 19.9079 16.9062 19.4883 16.9062 18.9704V17.1992C16.9062 16.6814 16.4866 16.2617 15.9688 16.2617Z" fill="white"/>
</svg>
