<svg width="32" height="32" viewBox="0 0 32 32" fill="none" xmlns="http://www.w3.org/2000/svg">
<g clip-path="url(#clip0)">
<path d="M28.7903 3.37414C26.4937 1.86146 24.489 1.58519 22.6609 2.52924C21.1102 3.3305 19.8775 4.88356 18.5037 6.96911C17.2485 8.87462 16.6228 11.0391 16.7413 13.0637C16.8072 14.1863 17.0965 15.1948 17.583 16.0417C17.4224 16.5416 17.2618 17.0416 17.101 17.5417C16.8819 18.2235 16.6628 18.9057 16.4436 19.5877L16.0417 20.8379C16.0298 20.8754 16.0213 20.8962 16 20.9272C15.9785 20.8962 15.9701 20.8754 15.9582 20.8379L15.5563 19.5877C15.3372 18.9057 15.1181 18.2235 14.8989 17.5417C14.7381 17.0416 14.5775 16.5416 14.4169 16.0417C14.9034 15.1948 15.1927 14.1863 15.2586 13.0637C15.3771 11.0391 14.7513 8.87462 13.4962 6.96911C12.1224 4.88349 10.8897 3.3305 9.33896 2.52924C7.51095 1.58519 5.50616 1.86146 3.20955 3.37414C0.912952 4.88696 -0.132459 6.61992 0.0133765 8.67203C0.13708 10.4132 1.07738 12.1589 2.4513 14.2443C3.70652 16.15 5.44788 17.5794 7.35491 18.2698C8.41226 18.6525 9.45323 18.7849 10.4232 18.6723C10.491 18.7312 10.5587 18.79 10.6261 18.849C11.1435 19.2998 11.6604 19.7504 12.1778 20.201C12.6794 20.6382 13.1813 21.0755 13.683 21.5126C13.8358 21.6458 13.9886 21.7791 14.1416 21.9124C14.1776 21.9436 14.2134 21.9748 14.2494 22.0062L14.2666 22.0214L14.7057 22.7477L11.5464 27.1907C11.5012 27.2596 11.4563 27.3289 11.4116 27.3983C11.3449 27.422 11.2804 27.4522 11.2194 27.4883C11.0884 27.5651 10.974 27.6689 10.8841 27.7912C10.734 27.9962 10.6569 28.2493 10.6677 28.5031C10.6781 28.747 10.7687 28.9852 10.9242 29.1734C11.0257 29.2963 11.1524 29.3828 11.2835 29.4691L11.7128 29.7519C11.8402 29.8358 11.965 29.9185 12.1123 29.966C12.5939 30.1209 13.1355 29.9249 13.4068 29.498C13.4885 29.3693 13.5403 29.2239 13.5675 29.0736C13.5834 28.9851 13.5823 28.8267 13.5823 28.8267C13.5823 28.8267 13.6123 28.7769 13.6306 28.7493C13.6522 28.7174 13.6734 28.6853 13.6947 28.6532C13.8857 28.366 14.0701 28.0749 14.2506 27.7811L16 24.888L17.7494 27.7811C17.9299 28.0749 18.1144 28.3661 18.3053 28.6532C18.3266 28.6853 18.3478 28.7174 18.3694 28.7493C18.3879 28.7769 18.4178 28.8267 18.4178 28.8267C18.4178 28.8267 18.4166 28.985 18.4325 29.0736C18.4598 29.2239 18.5116 29.3694 18.5932 29.498C18.8645 29.9249 19.4061 30.1209 19.8877 29.966C20.035 29.9185 20.1598 29.8358 20.2872 29.7519L20.7166 29.4691C20.8476 29.3828 20.9743 29.2964 21.0758 29.1734C21.2314 28.9852 21.3219 28.747 21.3323 28.5031C21.3431 28.2493 21.2661 27.9962 21.1159 27.7912C21.0261 27.6688 20.9116 27.5651 20.7807 27.4883C20.7196 27.4522 20.655 27.422 20.5884 27.3983C20.5437 27.3289 20.4989 27.2596 20.4536 27.1907L17.2942 22.7477L17.7335 22.0214L17.7507 22.0062C17.7866 21.9749 17.8225 21.9437 17.8584 21.9124C18.0114 21.7791 18.1642 21.6458 18.3171 21.5126C18.8187 21.0754 19.3207 20.6381 19.8223 20.201C20.3396 19.7504 20.8566 19.2998 21.374 18.849C21.4413 18.79 21.509 18.7312 21.5768 18.6723C22.5467 18.7849 23.5877 18.6525 24.6451 18.2698C26.5521 17.5794 28.2935 16.1499 29.5487 14.2443C30.9227 12.1588 31.8629 10.4131 31.9867 8.67203C32.1323 6.61992 31.0869 4.88689 28.7903 3.37414ZM28.4806 4.60292C29.2363 5.14145 29.8012 5.69426 30.1856 6.27601L30.0591 6.46826L28.1013 5.17849L28.4806 4.60292ZM18.4524 14.0484L19.742 12.0907L21.6997 13.3802L20.4102 15.338L18.4524 14.0484ZM19.9512 16.0349L19.5799 16.5985C19.0645 16.1754 18.6679 15.6325 18.3906 15.0071L19.9512 16.0349ZM20.201 11.394L21.4906 9.43604L23.4484 10.7257L22.1588 12.6835L20.201 11.394ZM21.9497 8.73926L23.2392 6.78144L25.197 8.07107L23.9073 10.0289L21.9497 8.73926ZM24.1451 11.1846L26.1029 12.4742L24.8133 14.4321L22.8555 13.1424L24.1451 11.1846ZM24.6041 10.4878L25.8938 8.53001L27.8514 9.81978L26.5619 11.7775L24.6041 10.4878ZM26.3527 7.83309L27.6423 5.87527L29.6001 7.16504L28.3105 9.12272L26.3527 7.83309ZM25.5734 3.23781C26.2596 3.36137 26.9905 3.6622 27.7837 4.14398L27.4044 4.71962L25.4467 3.42999L25.5734 3.23781ZM24.9879 4.12684L26.9455 5.41647L25.6561 7.37429L23.6981 6.08466L24.9879 4.12684ZM23.2068 3.58568C23.4 3.48584 23.5959 3.40467 23.7946 3.34098L24.2909 3.66796L23.0013 5.62565L21.6884 4.76076C22.1702 4.26872 22.6747 3.86049 23.2068 3.58568ZM21.122 5.38691L22.5422 6.32242L21.2526 8.28025L19.7277 7.2757C20.1725 6.61326 20.6354 5.96477 21.122 5.38691ZM19.2745 7.97623L20.7936 8.97709L19.5041 10.9349L18.2984 10.1407C18.524 9.41259 18.849 8.68244 19.2745 7.97623ZM18.0789 10.9951L19.0452 11.6316L17.9492 13.2953C17.8739 12.5676 17.9164 11.7893 18.0789 10.9951ZM14.0507 13.2954L12.9547 11.6317L13.921 10.9952C14.0835 11.7893 14.126 12.5676 14.0507 13.2954ZM6.10615 8.53001L7.39578 10.4878L5.43795 11.7775L4.14854 9.81978L6.10615 8.53001ZM3.68945 9.12272L2.39982 7.16504L4.35765 5.87527L5.64727 7.83309L3.68945 9.12272ZM6.80293 8.07107L8.76075 6.78144L10.0502 8.73926L8.09256 10.0289L6.80293 8.07107ZM7.85479 11.1846L9.14442 13.1424L7.1866 14.4321L5.89697 12.4742L7.85479 11.1846ZM8.55157 10.7257L10.5094 9.43604L11.799 11.394L9.8412 12.6835L8.55157 10.7257ZM12.2579 12.0907L13.5475 14.0484L11.5897 15.338L10.3002 13.3802L12.2579 12.0907ZM13.6092 15.0071C13.332 15.6325 12.9353 16.1755 12.42 16.5986L12.0486 16.035L13.6092 15.0071ZM13.7015 10.1407L12.4957 10.9348L11.2062 8.97703L12.7254 7.97616C13.1509 8.68244 13.4759 9.41259 13.7015 10.1407ZM12.2722 7.27577L10.7473 8.28032L9.45767 6.32249L10.8779 5.38698C11.3646 5.96477 11.8274 6.61326 12.2722 7.27577ZM8.2053 3.34091C8.40393 3.4046 8.59993 3.48577 8.79315 3.58561C9.32515 3.86042 9.82975 4.26872 10.3115 4.76076L8.99858 5.62558L7.70896 3.66789L8.2053 3.34091ZM8.3018 6.08466L6.34384 7.37429L5.05436 5.41647L7.01204 4.12684L8.3018 6.08466ZM6.42654 3.23781L6.55309 3.42999L4.59541 4.71955L4.21611 4.14391C5.0094 3.6622 5.74031 3.36137 6.42654 3.23781ZM3.51933 4.60292L3.89863 5.17856L1.94081 6.46833L1.81426 6.27608C2.19869 5.69426 2.76365 5.14138 3.51933 4.60292ZM1.19949 8.5876C1.18402 8.37065 1.18672 8.15869 1.2067 7.95083L1.70305 7.62398L2.99253 9.58167L1.6796 10.4466C1.41776 9.80979 1.24188 9.18496 1.19949 8.5876ZM2.03135 11.2143L3.45162 10.2788L4.74125 12.2365L3.21628 13.241C2.78301 12.5708 2.37013 11.8894 2.03135 11.2143ZM3.68085 13.9341L5.20012 12.9332L6.48975 14.891L5.28414 15.6852C4.7042 15.1905 4.16165 14.6037 3.68085 13.9341ZM5.98245 16.2244L6.94876 15.5879L8.04461 17.2516C7.34631 17.0335 6.6478 16.687 5.98245 16.2244ZM8.93503 17.0866L7.64554 15.1288L9.60336 13.8391L10.893 15.797L8.93503 17.0866ZM9.79159 17.5217L11.3521 16.494L11.7234 17.0575C11.131 17.364 10.4757 17.514 9.79159 17.5217ZM13.7225 19.9663C13.213 19.5221 12.7034 19.078 12.1939 18.634C12.0887 18.5425 11.9838 18.4509 11.8787 18.3594L13.5549 17.2553C13.687 17.6665 13.8191 18.0777 13.9512 18.489C14.158 19.1323 14.3648 19.776 14.5716 20.4195C14.6142 20.5522 14.6568 20.6847 14.6995 20.8175C14.3739 20.5336 14.0482 20.25 13.7225 19.9663ZM19.806 18.634C19.2965 19.078 18.7869 19.5221 18.2774 19.9663C17.9517 20.25 17.626 20.5336 17.3004 20.8175C17.3431 20.6848 17.3857 20.5522 17.4283 20.4196C17.6351 19.7761 17.8419 19.1324 18.0487 18.489C18.1808 18.0777 18.3129 17.6665 18.445 17.2554L20.1212 18.3594C20.0161 18.4509 19.9112 18.5425 19.806 18.634ZM20.2766 17.0575L20.6479 16.4939L22.2084 17.5217C21.5242 17.514 20.8689 17.364 20.2766 17.0575ZM21.1069 15.797L22.3965 13.8391L24.3544 15.1288L23.0649 17.0866L21.1069 15.797ZM23.9553 17.2515L25.0511 15.5879L26.0175 16.2243C25.3521 16.687 24.6536 17.0335 23.9553 17.2515ZM26.7157 15.6852L25.5101 14.891L26.7997 12.9332L28.319 13.9341C27.8383 14.6037 27.2957 15.1905 26.7157 15.6852ZM28.7837 13.241L27.2587 12.2364L28.5484 10.2787L29.9686 11.2142C29.6298 11.8894 29.2169 12.5708 28.7837 13.241ZM30.8004 8.5876C30.758 9.18489 30.5821 9.80972 30.3203 10.4466L29.0074 9.58167L30.2969 7.62398L30.7932 7.95083C30.8132 8.15876 30.8159 8.37065 30.8004 8.5876Z" fill="white"/>
</g>
<defs>
<clipPath id="clip0">
<rect width="32" height="32" fill="white"/>
</clipPath>
</defs>
</svg>
