<svg width="24" height="24" viewBox="0 0 24 24" fill="none" xmlns="http://www.w3.org/2000/svg">
<path d="M7.875 13.875H8.625V14.625H7.875V13.875Z" fill="white"/>
<path d="M6.375 13.875H7.125V14.625H6.375V13.875Z" fill="white"/>
<path d="M9.375 13.875H10.125V14.625H9.375V13.875Z" fill="white"/>
<path d="M9.375 15.375H10.125V16.125H9.375V15.375Z" fill="white"/>
<path d="M7.875 15.375H8.625V16.125H7.875V15.375Z" fill="white"/>
<path d="M6.375 15.375H7.125V16.125H6.375V15.375Z" fill="white"/>
<path d="M9.375 16.875H10.125V17.625H9.375V16.875Z" fill="white"/>
<path d="M7.875 16.875H8.625V17.625H7.875V16.875Z" fill="white"/>
<path d="M6.375 16.875H7.125V17.625H6.375V16.875Z" fill="white"/>
<path d="M3.375 15.375H4.125V16.125H3.375V15.375Z" fill="white"/>
<path d="M3.375 16.875H4.125V17.625H3.375V16.875Z" fill="white"/>
<path d="M16.125 6.375H9.375V8.625H16.125V6.375ZM15.375 7.875H10.125V7.125H15.375V7.875Z" fill="white"/>
<path d="M19.875 7.875H20.625V8.625H19.875V7.875Z" fill="white"/>
<path d="M21.375 7.875H22.125V8.625H21.375V7.875Z" fill="white"/>
<path d="M21.375 9.375H22.125V10.125H21.375V9.375Z" fill="white"/>
<path d="M19.875 9.375H20.625V10.125H19.875V9.375Z" fill="white"/>
<path d="M19.875 10.875H20.625V11.625H19.875V10.875Z" fill="white"/>
<path d="M21.375 10.875H22.125V11.625H21.375V10.875Z" fill="white"/>
<path d="M21.375 12.375H22.125V13.125H21.375V12.375Z" fill="white"/>
<path d="M19.875 12.375H20.625V13.125H19.875V12.375Z" fill="white"/>
<path d="M23.625 4.875V3.75C23.625 2.30288 22.4471 1.125 21 1.125C19.5529 1.125 18.375 2.30288 18.375 3.75V4.875H19.125V6.375H18.375V14.1608C18.1076 13.6084 17.8598 13.0474 17.625 12.4808V4.875H16.875V1.875H15.75V0.375H9.75V1.875H8.625V4.875H7.875V12.375H4.875V13.875H1.875V20.8819C0.989625 21.3045 0.375 22.2056 0.375 23.25V23.625H23.625V22.875H21.375V20.5864C22.6448 20.3512 23.625 18.9469 23.625 17.25V6.375H22.875V4.875H23.625ZM19.125 3.75C19.125 2.71613 19.9661 1.875 21 1.875C22.0339 1.875 22.875 2.71613 22.875 3.75V4.125H19.125V3.75ZM19.875 4.875H20.625V6.375H19.875V4.875ZM16.875 17.25V15.9506L17.8331 15.312L17.4172 14.688L16.875 15.0495V14.25H16.125V15.9697L15.6401 15.4849L15.1099 16.0151L16.125 17.0303V17.25H13.7996C14.8159 15.585 15.6836 13.821 16.3841 12H16.6163C17.3164 13.821 18.1845 15.585 19.2008 17.25H16.875ZM10.5 1.125H15V1.875H10.5V1.125ZM9.375 2.625H16.125V4.875H15.375V3.375H14.625V4.875H13.875V3.375H13.125V4.875H12.375V3.375H11.625V4.875H10.875V3.375H10.125V4.875H9.375V2.625ZM8.625 5.625H16.875V11.25H16.125V9.375H9.375V11.625H15.7208C14.9906 13.5454 14.0723 15.402 12.9844 17.1431L12.4485 18H16.125V20.6625C15.624 20.1469 14.9171 19.8356 14.1386 19.8776C13.8124 18.7856 12.789 18 11.625 18V12.375H8.625V5.625ZM15.375 10.125V10.875H10.125V10.125H15.375ZM5.625 13.125H10.875V18.1151C10.0177 18.3697 9.33788 19.0433 9.09637 19.9185C8.7405 19.8525 8.37525 19.8626 8.0265 19.9444C7.61325 19.0042 6.67425 18.375 5.625 18.375V13.125ZM2.625 14.625H4.875V18.4856C4.60388 18.5666 4.3515 18.6904 4.125 18.849V18.375H3.375V19.125H3.79275C3.38925 19.5191 3.11063 20.0404 3.02663 20.625C3.018 20.625 3.00863 20.625 3 20.625C2.8725 20.625 2.748 20.6374 2.625 20.655V14.625ZM3 21.375C3.0975 21.375 3.20025 21.3844 3.31387 21.4035L3.75 21.4444V21C3.75 19.9661 4.59113 19.125 5.625 19.125C6.468 19.125 7.21125 19.6943 7.4325 20.5084L7.54275 20.9145L7.93313 20.7585C8.35688 20.5901 8.82075 20.5796 9.261 20.7379L9.71062 20.9002L9.76087 20.4247C9.86212 19.47 10.6635 18.75 11.625 18.75C12.5437 18.75 13.3395 19.4351 13.4764 20.3438L13.5341 20.7266L13.9144 20.6569C14.0329 20.6355 14.1424 20.625 14.25 20.625C15.2839 20.625 16.125 21.4661 16.125 22.5V22.875H1.16288C1.33688 22.0204 2.09438 21.375 3 21.375ZM16.875 22.875V22.5V18H18.4406C18.6795 19.3616 19.5544 20.3891 20.625 20.5871V22.875H16.875ZM21 19.875C20.1634 19.875 19.4385 19.0928 19.2049 18H20.5511L20.0156 17.1431C19.785 16.7741 19.5667 16.3972 19.3515 16.0185C19.6785 15.1691 20.31 14.625 21 14.625C22.0339 14.625 22.875 15.8029 22.875 17.25C22.875 18.6971 22.0339 19.875 21 19.875ZM21 13.875C20.2763 13.875 19.6087 14.2579 19.125 14.8942V7.125H22.875V14.8927C22.398 14.2657 21.7342 13.875 21 13.875ZM22.125 6.375H21.375V4.875H22.125V6.375Z" fill="white"/>
</svg>
