<svg width="32" height="32" viewBox="0 0 32 32" fill="none" xmlns="http://www.w3.org/2000/svg">
<path d="M0 9.4375H1.9375V14.125C1.9375 21.897 8.22705 28.1875 16 28.1875C23.772 28.1875 30.0625 21.8979 30.0625 14.125V9.4375H32V3.8125H0V9.4375ZM10.7031 9.4375C9.01807 10.8003 7.86646 12.7974 7.61475 15.0625H3.84814C3.82446 14.7532 3.8125 14.4404 3.8125 14.125V9.4375H10.7031ZM22.5625 16C22.5625 19.6187 19.6187 22.5625 16 22.5625C12.3813 22.5625 9.4375 19.6187 9.4375 16C9.4375 12.3813 12.3813 9.4375 16 9.4375C19.6187 9.4375 22.5625 12.3813 22.5625 16ZM16 26.3125C10.2476 26.3125 5.41382 22.3062 4.14062 16.9375H7.61499C8.08276 21.1504 11.6646 24.4375 16 24.4375C20.3354 24.4375 23.9172 21.1497 24.385 16.9368H27.8594C26.5862 22.3057 21.7524 26.3125 16 26.3125ZM28.1875 14.125C28.1875 14.4404 28.1755 14.7532 28.1519 15.0625H24.3853C24.1335 12.7974 22.9819 10.8003 21.2969 9.4375H28.1875V14.125ZM1.875 5.6875H30.125V7.5625H1.875V5.6875Z" fill="white"/>
<path d="M16 20.6875C18.5847 20.6875 20.6875 18.5847 20.6875 16C20.6875 13.4153 18.5847 11.3125 16 11.3125C13.4153 11.3125 11.3125 13.4153 11.3125 16C11.3125 18.5847 13.4153 20.6875 16 20.6875ZM16 13.1875C17.5508 13.1875 18.8125 14.4492 18.8125 16C18.8125 17.5508 17.5508 18.8125 16 18.8125C14.4492 18.8125 13.1875 17.5508 13.1875 16C13.1875 14.4492 14.4492 13.1875 16 13.1875Z" fill="white"/>
<path d="M16.0005 14.6738L17.3264 15.9995L16.0005 17.3254L14.6748 15.9995L16.0005 14.6738Z" fill="white"/>
</svg>
