<svg width="24" height="24" viewBox="0 0 24 24" fill="none" xmlns="http://www.w3.org/2000/svg">
<g clip-path="url(#clip0)">
<path d="M0.799988 15.6005H8.80005C9.2417 15.5999 9.59949 15.2421 9.60004 14.8005V9.20038C9.59949 8.75873 9.2417 8.40094 8.80005 8.40039H0.799988C0.358337 8.40094 0.000549319 8.75873 0 9.20038V14.8005C0.000549319 15.2421 0.358337 15.5999 0.799988 15.6005ZM0.799988 9.20038H8.80005L8.80042 14.8005H0.799988V9.20038Z" fill="white"/>
<path d="M0.799988 24.0009H3.99994C4.44159 24.0003 4.79956 23.6425 4.79993 23.2009V17.6008C4.79956 17.1593 4.44159 16.8013 3.99994 16.8008H0.799988C0.358337 16.8013 0.000549319 17.1593 0 17.6008V23.2009C0.000549319 23.6425 0.358337 24.0003 0.799988 24.0009ZM0.799988 17.6008H3.99994L4.00049 23.2009H0.799988V17.6008Z" fill="white"/>
<path d="M23.2 0H0.799988C0.358337 0.000549319 0.000549319 0.358337 0 0.799988V6.40009C0.000549319 6.84155 0.358337 7.19952 0.799988 7.20007H11.814C12.0396 7.5835 12.2331 7.98486 12.3929 8.39996H11.5999C11.1584 8.40051 10.8005 8.7583 10.7999 9.19995V14.8C10.8005 15.2417 11.1584 15.5995 11.5999 15.6H12.3699C12.3644 15.7808 12.3538 15.9624 12.3558 16.1409C12.3585 16.3526 12.3688 16.5743 12.3825 16.7999H6.79999C6.35834 16.8005 6.00055 17.1584 6 17.5999V23.2C6.00055 23.6417 6.35834 23.9995 6.79999 24H23.2C23.6417 23.9995 23.9995 23.6417 24 23.2V0.799988C23.9995 0.358337 23.6417 0.000549319 23.2 0V0ZM0.799988 0.799988H7.49707C7.47144 1.36047 7.48956 1.92206 7.55164 2.47961C7.77301 3.62805 8.66949 4.20795 9.46051 4.71973L9.58905 4.80286C10.2416 5.2337 10.8148 5.77405 11.2833 6.40009H0.799988V0.799988ZM11.5999 9.19995H12.6495C12.8322 9.86737 12.9313 10.5549 12.9441 11.2467C12.9326 11.8647 12.8474 12.479 12.6907 13.0768C12.6312 13.3466 12.5715 13.6185 12.5222 13.8986C12.4702 14.1916 12.4362 14.4948 12.4105 14.8H11.5999V9.19995ZM6.79999 17.5999H12.4622C12.6753 19.639 13.4526 21.5782 14.7068 23.2H6.79999V17.5999ZM23.2 23.2H15.7679C14.2652 21.5303 13.3647 19.4052 13.2105 17.1639C13.1781 16.8052 13.1598 16.4575 13.1559 16.1307C13.1519 15.8322 13.1602 15.5275 13.1799 15.2192C13.1984 14.8229 13.242 14.4283 13.3099 14.0376C13.3577 13.7686 13.415 13.5075 13.4722 13.2486C13.643 12.5903 13.7344 11.9141 13.7444 11.2341C13.73 10.3678 13.593 9.50793 13.3376 8.67993C13.1098 7.94568 12.7897 7.24347 12.3847 6.58997C11.79 5.60632 10.9843 4.76697 10.0258 4.13251L9.89484 4.04773C9.14337 3.5614 8.49371 3.14154 8.33862 2.33917C8.29156 1.82758 8.27637 1.31342 8.29303 0.799988H23.2V23.2Z" fill="white"/>
<path d="M9.14097 2.25163C9.26091 2.66728 9.67069 2.94963 10.3297 3.37553L10.4648 3.46324C11.5197 4.15977 12.4068 5.08207 13.0616 6.16349C13.5049 6.87852 13.8552 7.64701 14.1044 8.45066C14.1707 8.66142 14.3952 8.77842 14.6059 8.71232C14.8167 8.64604 14.9339 8.42137 14.8676 8.21061C14.5984 7.34306 14.2199 6.51322 13.7415 5.74107C13.0248 4.56004 12.0547 3.55314 10.9013 2.79289L10.7644 2.70408C10.4526 2.52977 10.168 2.31077 9.91972 2.05406L9.91349 1.97331C9.89884 1.75267 9.70823 1.58586 9.48777 1.6005C9.26731 1.61534 9.1005 1.80595 9.11515 2.02641C9.11918 2.08372 9.12303 2.13572 9.12706 2.17948C9.12962 2.20384 9.1342 2.22801 9.14097 2.25163Z" fill="white"/>
<path d="M14.5439 11.219C14.5347 11.9699 14.4355 12.717 14.2481 13.4443C14.195 13.6847 14.1419 13.9266 14.0982 14.1752C14.0348 14.5391 13.9947 14.9064 13.9779 15.2753C13.9599 15.5564 13.9524 15.8409 13.9559 16.1202C13.9596 16.4263 13.9768 16.7504 14.0072 17.0861C14.1392 18.9689 14.8326 20.7689 15.9977 22.2538C16.0873 22.3688 16.2323 22.426 16.3762 22.4033C16.5201 22.3804 16.6402 22.2811 16.6897 22.1442C16.7393 22.007 16.7104 21.8539 16.6142 21.7444C15.5584 20.3796 14.9286 18.7335 14.8037 17.0125C14.7757 16.6993 14.7597 16.3959 14.7561 16.1103C14.7524 15.851 14.7594 15.5879 14.7768 15.3204C14.7918 14.9831 14.8282 14.6473 14.8857 14.3146C14.9278 14.0775 14.9791 13.846 15.0349 13.5913C15.2342 12.8116 15.3378 12.0106 15.3438 11.2058C15.3404 10.9875 15.1622 10.8123 14.9439 10.8125H14.9374C14.8312 10.8141 14.7301 10.8579 14.6565 10.9343C14.5827 11.0104 14.5422 11.113 14.5439 11.219Z" fill="white"/>
</g>
<defs>
<clipPath id="clip0">
<rect width="24" height="24" fill="white"/>
</clipPath>
</defs>
</svg>
