<svg width="16" height="16" viewBox="0 0 16 16" fill="none" xmlns="http://www.w3.org/2000/svg">
<path d="M15.3737 4.40797C15.7189 4.40797 15.9986 4.1282 15.9986 3.78306V3.12691C15.9986 1.40273 14.5959 0 12.8717 0C12.8717 0 3.07603 0.00146853 3.05188 0.00431186C2.22735 0.0331201 1.43531 0.386943 0.864393 0.985166C0.279199 1.59833 -0.025881 2.39583 0.00283347 3.23493C0.00164615 3.25083 0.00102124 12.2482 0.00102124 12.2482C0.00102124 14.3169 1.68408 16 3.75284 16H12.8717C14.5959 16 15.9986 14.5973 15.9986 12.8731V8.12854C15.9986 6.40436 14.5959 5.00163 12.8717 5.00163H3.12553C2.12221 5.00163 1.29964 4.21744 1.25287 3.21634C1.22909 2.70729 1.41222 2.22136 1.76848 1.84804C2.12989 1.46934 2.63747 1.25219 3.16102 1.25219C3.17949 1.25219 12.8717 1.24981 12.8717 1.24981C13.9067 1.24981 14.7488 2.09188 14.7488 3.12691V3.78306C14.7488 4.1282 15.0286 4.40797 15.3737 4.40797ZM3.12553 6.25145H12.8717C13.9067 6.25145 14.7488 7.09351 14.7488 8.12854V12.8731C14.7488 13.9081 13.9067 14.7502 12.8717 14.7502H3.75284C2.37323 14.7502 1.25084 13.6278 1.25084 12.2482V5.62907C1.77351 6.02058 2.42294 6.25145 3.12553 6.25145ZM13.499 10.5008C13.499 10.9322 13.1493 11.2819 12.7179 11.2819C11.6817 11.2408 11.682 9.76068 12.7179 9.71968C13.1493 9.71968 13.499 10.0694 13.499 10.5008ZM13.499 3.12691C13.499 2.78177 13.2192 2.502 12.8741 2.502H3.12556C2.29643 2.535 2.29706 3.7191 3.12556 3.75182H12.8741C13.2192 3.75182 13.499 3.47205 13.499 3.12691Z" fill="white"/>
</svg>
