<svg width="96" height="24" viewBox="0 0 96 24" fill="none" xmlns="http://www.w3.org/2000/svg">
<path d="M22.2026 4.13867H1.79742C0.804703 4.13867 0 4.94338 0 5.93609V9.38005H24V5.93609C24 4.94338 23.1953 4.13867 22.2026 4.13867Z" fill="#F5F5F5"/>
<path d="M0 18.065C0 19.0577 0.804703 19.8625 1.79742 19.8625H22.2026C23.1952 19.8625 24 19.0578 24 18.065V14.6211H0V18.065Z" fill="#FF4B55"/>
<path d="M24 9.37891H0V14.62H24V9.37891Z" fill="#41479B"/>
<path d="M58.2026 4.13867H37.7974C36.8047 4.13867 36 4.94338 36 5.93609V18.0654C36 19.0581 36.8047 19.8628 37.7974 19.8628H58.2026C59.1952 19.8628 60 19.0581 60 18.0654V5.93609C60 4.94338 59.1953 4.13867 58.2026 4.13867Z" fill="#41479B"/>
<path d="M59.9751 5.639C59.8335 4.7878 59.094 4.13867 58.2026 4.13867H57.7349L50.069 9.16119V4.13872H45.931V9.16124L38.2651 4.13872H37.7974C36.906 4.13872 36.1665 4.7878 36.0249 5.63905L42.577 9.93186H36V14.0698H42.577L36.0249 18.3625C36.1665 19.2137 36.906 19.8629 37.7974 19.8629H38.2651L45.931 14.8403V19.8629H50.069V14.8403L57.7349 19.8629H58.2026C59.094 19.8629 59.8335 19.2138 59.9751 18.3625L53.423 14.0697H60V9.93177H53.423L59.9751 5.639Z" fill="#F5F5F5"/>
<path d="M49.2414 4.13867H46.7586V10.7593H36V13.2421H46.7586V19.8628H49.2414V13.2421H60V10.7593H49.2414V4.13867Z" fill="#FF4B55"/>
<path d="M37.1624 19.7475L45.9085 14.0703H44.3884L36.4326 19.2346C36.6273 19.4618 36.8775 19.6399 37.1624 19.7475Z" fill="#FF4B55"/>
<path d="M52.2369 14.0703H50.7168L59.1879 19.569C59.4249 19.4133 59.6227 19.203 59.7638 18.9561L52.2369 14.0703Z" fill="#FF4B55"/>
<path d="M36.1895 5.13319L43.583 9.93258H45.1031L36.725 4.49414C36.5001 4.66158 36.316 4.88048 36.1895 5.13319Z" fill="#FF4B55"/>
<path d="M51.5894 9.93094L59.5598 4.75711C59.363 4.53066 59.1108 4.35366 58.8239 4.24805L50.0693 9.93094H51.5894Z" fill="#FF4B55"/>
<path d="M94.2047 4.13867H73.7953C72.8016 4.13867 72 4.94492 72 5.93399V18.0652C72 19.059 72.8062 19.8606 73.7953 19.8606H94.2C95.1938 19.8606 95.9953 19.0543 95.9953 18.0652V5.93399C96 4.94023 95.1938 4.13867 94.2047 4.13867Z" fill="#F5F5F5"/>
<path d="M72 18.0652C72 19.059 72.8062 19.8605 73.7953 19.8605H94.2C95.1938 19.8605 95.9953 19.0543 95.9953 18.0652V17.3809H72V18.0652Z" fill="#FF4B55"/>
<path d="M94.2047 4.13867H73.7953C72.8016 4.13867 72 4.94492 72 5.93398V6.61836H96V5.93398C96 4.94023 95.1938 4.13867 94.2047 4.13867Z" fill="#FF4B55"/>
<path d="M96 9.10352H72V14.8973H96V9.10352Z" fill="#41479B"/>
</svg>
