<svg width="40" height="24" viewBox="0 0 40 24" fill="none" xmlns="http://www.w3.org/2000/svg">
<path d="M37.5302 20.7391C36.5225 19.5697 35.6096 18.3221 34.8002 17.0081C33.7222 15.3572 32.3202 13.0156 31.7822 11.9476C34.1542 11.0153 36.2742 9.32851 36.2742 6.1365C36.2742 3.91067 35.3042 2.34361 33.8742 1.36344C32.4442 0.383282 30.6502 0.019963 27.5902 0.00199668V0.429196H26.9902V0H26.5902V0.429196H25.9902V0H25.5902V0.429196H24.9902V0H23.5782V0.429196H22.9782V0H22.5782V0.429196H21.9782V0H21.5782V0.429196H20.9782V0H20.5782V0.429196H19.9782V0H19.5782V0.429196H18.9782V0H18.5782V0.429196H17.9782V0H17.5782V0.429196H16.9782V0H15.5682V0.429196H15.0022V1.32951C15.3662 1.36943 15.6862 1.40736 15.9702 1.44928V0.830444H16.5702V1.56706C16.9234 1.63112 17.2509 1.79458 17.5142 2.03818H17.5782V2.10805C17.8216 2.43939 17.9639 2.8338 17.9882 3.24392H18.5882V4.04242H18.0482C18.0482 4.17018 18.0482 4.30593 18.0582 4.44167H18.5882V5.24017H18.0602V5.63943H18.5882V6.43793H18.0602V6.83718H18.5882V7.63568H18.0602V8.03493H18.5882V8.83344H18.0602V9.23269H18.5882V10.0312H18.0602V10.4304H18.5882V11.2289H18.0602V11.6282H18.5882V12.4267H17.9882V11.6901H17.5882V12.4267H16.9882V11.6901H16.5882V12.4267H15.9882V11.6901H8.2602V4.81697C8.2602 1.82258 8.5482 1.58104 11.2842 1.32951V0H0.200195V1.32951C2.9362 1.5451 3.2602 1.83256 3.2602 4.81697V18.5911C3.2602 21.5736 2.8602 21.7532 0.200195 22.0407V23.3702H11.2882V22.0247C8.5882 21.7372 8.2642 21.5576 8.2642 18.5752V13.2272H14.8862V12.8998H15.4862V13.2272H15.8862V12.8998H16.4862V13.2272H17.8982V12.8998H18.4982V13.6983H17.9702V14.0976H18.4982V14.8961H17.9702V15.2953H18.4982V16.0938H17.9702V16.4931H18.4982V17.2916H17.9702V18.5472C17.9702 18.671 17.9702 18.7868 17.9702 18.9006H18.5002V19.6991H17.9482C17.9482 19.8428 17.9302 19.9785 17.9182 20.0983H18.5002V20.8968H17.9002V20.264C17.8302 20.7471 17.7002 21.0625 17.4522 21.2981H17.4962V22.0966H16.8962V21.6135C16.4462 21.7732 15.8122 21.861 14.9202 21.9748L14.8962 23.2045H15.8962V22.4958H16.4962V23.2085H16.8962V22.4938H17.4962V23.2105H17.8962V22.4918H18.4962V23.2145H18.8962V22.4898H19.4962V23.2165H19.8962V22.4878H20.4962V23.2185H20.8962V22.4858H21.4962V23.2225H22.9062V22.4799H23.5062V23.2265H23.9062V22.4779H24.5062V23.2284H24.9062V22.4759H25.5062V23.2304H25.9062V22.4739H26.5062V23.2344H26.9062V22.4719H27.5062V23.2364H27.8582V21.9089C27.3142 21.845 26.8682 21.7812 26.4982 21.7093V22.0766H25.8982V21.5276C25.7552 21.471 25.6206 21.3951 25.4982 21.3021V22.0766H24.8982V21.2781H25.4662C25.3315 21.168 25.22 21.0323 25.1382 20.8789H24.8982V20.0803C24.8332 19.5406 24.8058 18.997 24.8162 18.4534V13.2771H24.8982V12.8958H25.4982V13.307H25.6002C25.7322 13.307 25.8542 13.307 25.9702 13.307V12.8858H26.5702V13.3949C26.7098 13.4317 26.8442 13.486 26.9702 13.5566V12.8858H27.5702V13.6843H27.1702C27.3111 13.8006 27.4362 13.9349 27.5422 14.0836H27.5782V14.1315C27.6482 14.2333 27.7162 14.3471 27.7782 14.4729C29.0022 16.6248 30.0442 18.8127 31.4822 20.787C32.5602 22.2942 33.8822 23.2624 38.4562 23.478C38.8862 23.5139 39.3182 23.5139 39.5342 23.5139L39.7862 22.2942C38.7522 21.9588 38.3582 21.6714 37.5302 20.7391ZM17.5022 1.63493H16.9022V0.836432H17.5022V1.63493ZM18.5022 22.1525H17.9022V21.354H18.5022V22.1525ZM18.5022 2.84267H17.9022V2.04417H18.5022V2.84267ZM18.5022 1.64492H17.9022V0.846413H18.5022V1.64492ZM19.5022 20.9567H18.9022V20.1582H19.5022V20.9567ZM19.5022 19.759H18.9022V18.9604H19.5022V19.759ZM19.5022 18.5612H18.9022V17.7627H19.5022V18.5612ZM19.5022 17.3634H18.9022V16.5649H19.5022V17.3634ZM19.5022 16.1557H18.9022V15.3572H19.5022V16.1557ZM19.5022 14.958H18.9022V14.1595H19.5022V14.958ZM19.5022 13.7502H18.9022V12.9517H19.5022V13.7502ZM19.5022 11.3367H18.9022V10.5382H19.5022V11.3367ZM19.5022 10.139H18.9022V9.34049H19.5022V10.139ZM19.5022 8.94124H18.9022V8.14273H19.5022V8.94124ZM19.5022 7.74348H18.9022V6.94498H19.5022V7.74348ZM19.5022 6.54573H18.9022V5.6554H19.5022V6.54573ZM19.5022 5.34797H18.9022V4.45764H19.5022V5.34797ZM19.5022 4.15022H18.9022V3.35172H19.5022V4.15022ZM19.5022 2.95246H18.9022V2.15396H19.5022V2.95246ZM19.5022 1.75471H18.9022V0.956207H19.5022V1.75471ZM20.5022 22.2722H19.9022V21.4737H20.5022V22.2722ZM20.5022 21.0745H19.9022V20.276H20.5022V21.0745ZM20.5022 19.8767H19.9022V19.0782H20.5022V19.8767ZM20.5022 18.679H19.9022V17.8805H20.5022V18.679ZM20.5022 17.4812H19.9022V16.6827H20.5022V17.4812ZM20.5022 16.2735H19.9022V15.475H20.5022V16.2735ZM20.5022 15.0757H19.9022V14.2772H20.5022V15.0757ZM20.5022 13.868H19.9022V13.0695H20.5022V13.868ZM20.5022 12.6702H19.9022V11.8717H20.5022V12.6702ZM20.5022 11.4725H19.9022V10.674H20.5022V11.4725ZM20.5022 10.2747H19.9022V9.47623H20.5022V10.2747ZM20.5022 9.07698H19.9022V8.27848H20.5022V9.07698ZM20.5022 7.87923H19.9022V7.08072H20.5022V7.87923ZM20.5022 6.68147H19.9022V5.6554H20.5022V6.68147ZM20.5022 5.48372H19.9022V4.45764H20.5022V5.48372ZM20.5022 4.28596H19.9022V3.48746H20.5022V4.28596ZM20.5022 3.08821H19.9022V2.28971H20.5022V3.08821ZM20.5022 1.89046H19.9022V1.09195H20.5022V1.89046ZM21.5022 22.408H20.9022V21.6095H21.5022V22.408ZM21.5022 21.2102H20.9022V20.4117H21.5022V21.2102ZM21.5022 18.7968H20.9022V17.9983H21.5022V18.7968ZM21.5022 17.599H20.9022V16.8005H21.5022V17.599ZM21.5022 16.3913H20.9022V15.5928H21.5022V16.3913ZM21.5022 13.9778H20.9022V13.1793H21.5022V13.9778ZM21.5022 12.78H20.9022V11.9815H21.5022V12.78ZM21.5022 11.5823H20.9022V10.7838H21.5022V11.5823ZM21.5022 10.3845H20.9022V9.58603H21.5022V10.3845ZM21.5022 9.18678H20.9022V8.38827H21.5022V9.18678ZM21.5022 6.7733H20.9022V5.6554H21.5022V6.7733ZM21.5022 5.57555H20.9022V4.45764H21.5022V5.57555ZM21.5022 4.37779H20.9022V3.57929H21.5022V4.37779ZM21.5022 1.96432H20.9022V1.16581H21.5022V1.96432ZM22.5022 22.4818H21.9022V21.6833H22.5022V22.4818ZM22.5022 21.2841H21.9022V20.4856H22.5022V21.2841ZM22.5022 20.0863H21.9022V19.2878H22.5022V20.0863ZM22.5022 18.8886H21.9022V18.0901H22.5022V18.8886ZM22.5022 17.6908H21.9022V16.8923H22.5022V17.6908ZM22.5022 16.4831H21.9022V15.6846H22.5022V16.4831ZM22.5022 15.2853H21.9022V14.4868H22.5022V15.2853ZM22.5022 14.0776H21.9022V13.2791H22.5022V14.0776ZM22.5022 11.6641H21.9022V10.8656H22.5022V11.6641ZM22.5022 10.4664H21.9022V9.66787H22.5022V10.4664ZM22.5022 9.26862H21.9022V8.47012H22.5022V9.26862ZM22.5022 8.07087H21.9022V7.27236H22.5022V8.07087ZM22.5022 6.87311H21.9022V5.6554H22.5022V6.87311ZM22.5022 5.67536H21.9022V4.45764H22.5022V5.67536ZM22.5022 4.4776H21.9022V3.6791H22.5022V4.4776ZM22.5022 3.27985H21.9022V2.48135H22.5022V3.27985ZM22.5022 2.0821H21.9022V1.28359H22.5022V2.0821ZM22.9022 1.28359H23.5022V2.0821H22.9022V1.28359ZM22.9022 2.48135H23.5022V3.27985H22.9022V2.48135ZM22.9022 3.6791H23.5022V4.4776H22.9022V3.6791ZM22.9022 4.87686H23.5022V5.67536H22.9022V4.87686ZM22.9022 6.07461H23.5022V6.87311H22.9022V6.07461ZM22.9022 7.27236H23.5022V8.07087H22.9022V7.27236ZM22.9022 8.47012H23.5022V9.26862H22.9022V8.47012ZM22.9022 9.66787H23.5022V10.4664H22.9022V9.66787ZM22.9022 10.8656H23.5022V11.6641H22.9022V10.8656ZM23.5022 22.5318H22.9022V21.7332H23.5022V22.5318ZM23.5022 21.334H22.9022V20.5355H23.5022V21.334ZM23.5022 20.1362H22.9022V19.3377H23.5022V20.1362ZM23.5022 18.9385H22.9022V18.14H23.5022V18.9385ZM23.5022 17.7407H22.9022V16.9422H23.5022V17.7407ZM23.5022 16.533H22.9022V15.7345H23.5022V16.533ZM23.5022 14.1195H22.9022V13.321H23.5022V14.1195ZM23.5022 12.9218H22.9022V12.1233H23.5022V12.9218ZM24.5022 21.3699H23.9022V20.5714H24.5022V21.3699ZM24.5022 20.1722H23.9022V19.3737H24.5022V20.1722ZM24.5022 17.7587H23.9022V16.9602H24.5022V17.7587ZM24.5022 16.551H23.9022V15.7525H24.5022V16.551ZM24.5022 15.3532H23.9022V14.5547H24.5022V15.3532ZM24.5022 14.1455H23.9022V13.347H24.5022V14.1455ZM24.5022 12.9477H23.9022V12.1492H24.5022V12.9477ZM24.5022 11.75H23.9022V10.9515H24.5022V11.75ZM24.5022 10.5522H23.9022V9.75371H24.5022V10.5522ZM24.5022 9.35446H23.9022V8.55596H24.5022V9.35446ZM24.5022 8.15671H23.9022V7.3582H24.5022V8.15671ZM24.5022 6.95895H23.9022V5.6554H24.5022V6.95895ZM24.5022 4.54348H23.9022V3.74498H24.5022V4.54348ZM24.5022 3.34573H23.9022V2.54722H24.5022V3.34573ZM24.5022 2.14797H23.9022V1.34947H24.5022V2.14797ZM27.9282 1.34947H28.5282V2.14797H27.9282V1.34947ZM24.9062 1.34947H25.5062V2.14797H24.9062V1.34947ZM29.3062 11.3906C28.6442 11.9616 27.7062 12.2271 26.5062 12.3009V13.0176H25.9062V12.3209H25.7882H25.5042V13.0136H24.9042V12.3209H24.8222V3.73699C24.8222 3.01834 24.8942 2.58915 25.1442 2.37355C25.3602 2.15795 25.8282 2.01422 26.7982 2.01422H26.9182V1.3355H27.5182V2.07411C29.2982 2.37355 30.9982 3.83082 30.9982 7.17854C31.0602 8.50405 30.5562 9.8675 29.3702 10.8716L29.3062 11.3906Z" fill="white"/>
<path d="M20.6183 3.10547H19.7783V4.16348H20.6183V3.10547Z" fill="#EF7700"/>
<path d="M23.6798 0.701172H22.8398V1.75919H23.6798V0.701172Z" fill="#EF7700"/>
<path d="M22.6398 5.52148H21.7998V6.5795H22.6398V5.52148Z" fill="#EF7700"/>
<path d="M23.6681 17.5996H22.8281V18.6576H23.6681V17.5996Z" fill="#EF7700"/>
<path d="M19.6906 20.0156H18.8506V21.0736H19.6906V20.0156Z" fill="#EF7700"/>
<path d="M23.6681 21.2402H22.8281V22.2982H23.6681V21.2402Z" fill="#EF7700"/>
<path d="M19.6339 14.0039H18.7939V15.0619H19.6339V14.0039Z" fill="#EF7700"/>
<path d="M23.6798 10.3652H22.8398V11.4233H23.6798V10.3652Z" fill="#EF7700"/>
<path d="M19.6681 7.91602H18.8281V8.97403H19.6681V7.91602Z" fill="#EF7700"/>
</svg>
