<svg width="68" height="52" viewBox="0 0 68 52" fill="none" xmlns="http://www.w3.org/2000/svg">
<path d="M0 42.249H2.16952V45.9893H6.22362V42.249H8.41905V51.8413H6.22362V47.6891H2.16952V51.8413H0V42.249Z" fill="white"/>
<path d="M12.9973 42.249V51.8413H10.8213V42.249H12.9973Z" fill="white"/>
<path d="M24.1597 51.8411H22.5633C22.4776 51.5315 22.4223 51.2143 22.3982 50.8939C21.838 51.6108 20.8568 52.0001 19.4547 52.0001C16.5405 52.0001 14.8955 49.898 14.8955 47.1666C14.8955 44.2828 16.657 42.1094 19.8336 42.1094C22.4241 42.1094 23.9525 43.5043 24.1986 45.1392H22.0193C21.8121 44.4904 21.2778 43.7378 19.8045 43.7378C17.7353 43.7378 17.146 45.3825 17.146 47.0758C17.146 48.7691 17.8227 50.3489 19.8174 50.3489C21.6826 50.3489 22.0258 49.1195 22.0258 48.2598V48.1755H19.8142V46.4757H24.1597V51.8411Z" fill="white"/>
<path d="M26.3838 42.249H28.5598V45.9893H32.6139V42.249H34.7931V51.8413H32.6139V47.6891H28.5598V51.8413H26.3838V42.249Z" fill="white"/>
<path d="M39.3393 48.0005V51.8413H37.2119V42.249H41.6384C43.8338 42.249 45.019 43.4006 45.019 44.8831C45.0463 45.3685 44.9189 45.85 44.6552 46.2581C44.3916 46.6663 44.0053 46.9799 43.5521 47.1538C44.054 47.329 44.8053 47.8253 44.8053 49.5413V50.015C44.7762 50.6285 44.8251 51.2433 44.951 51.8445H42.8851C42.707 51.4261 42.6746 50.7092 42.6746 49.6906V49.5511C42.6746 48.5033 42.3961 48.0037 40.7738 48.0037L39.3393 48.0005ZM39.3393 46.3526H41.1656C42.3605 46.3526 42.8203 45.9179 42.8203 45.1166C42.8203 44.3154 42.2828 43.9002 41.2013 43.9002H39.3232L39.3393 46.3526Z" fill="white"/>
<path d="M49.1346 42.249V51.8413H46.9521V42.249H49.1346Z" fill="white"/>
<path d="M52.9496 49.0287C53.1795 50.0018 53.9048 50.4138 55.0705 50.4138C56.2363 50.4138 56.7317 49.9791 56.7317 49.2752C56.7317 48.4934 56.246 48.156 54.5233 47.7733C51.7806 47.1602 51.1006 46.2129 51.1006 44.9186C51.1006 43.2447 52.4153 42.1094 54.8018 42.1094C57.4765 42.1094 58.5418 43.4783 58.6875 44.8829H56.4921C56.3852 44.2925 56.042 43.6502 54.7435 43.6502C53.8595 43.6502 53.3252 43.9973 53.3252 44.6786C53.3252 45.3598 53.7526 45.616 55.3814 45.9761C58.3119 46.6249 58.9433 47.6727 58.9433 49.0254C58.9433 50.7739 57.5509 51.9774 54.886 51.9774C52.3279 51.9774 50.9808 50.7771 50.7412 49.0287H52.9496Z" fill="white"/>
<path d="M67.4952 47.7053H62.6769V50.1415H68.0004L67.7413 51.8413H60.5527V42.249H67.7089V43.9488H62.6769V46.0055H67.4952V47.7053Z" fill="white"/>
<path d="M62.3814 33.7011C60.7499 31.8007 59.2719 29.7734 57.9614 27.6382C56.2161 24.9555 53.9462 21.1503 53.0751 19.4148C56.9155 17.8999 60.3479 15.1588 60.3479 9.9718C60.3479 6.35484 58.7774 3.80836 56.4622 2.2156C54.147 0.622833 51.2424 0.0324399 46.2881 0.00324461V0.697443H45.3167V0H44.669V0.697443H43.6976V0H43.05V0.697443H42.0786V0H39.7925V0.697443H38.821V0H38.1734V0.697443H37.202V0H36.5544V0.697443H35.583V0H34.9353V0.697443H33.9639V0H33.3163V0.697443H32.3449V0H31.6972V0.697443H30.7258V0H30.0782V0.697443H29.1068V0H26.8239V0.697443H25.9075V2.16045C26.4969 2.22533 27.015 2.28696 27.4748 2.35508V1.34947H28.4462V2.54647C29.0181 2.65057 29.5483 2.91619 29.9746 3.31204H30.0782V3.42558C30.4722 3.964 30.7027 4.60492 30.742 5.27137H31.7134V6.56893H30.8391C30.8391 6.77654 30.8391 6.99713 30.8553 7.21772H31.7134V8.51528H30.8586V9.16407H31.7134V10.4616H30.8586V11.1104H31.7134V12.408H30.8586V13.0568H31.7134V14.3543H30.8586V15.0031H31.7134V16.3007H30.8586V16.9495H31.7134V18.247H30.8586V18.8958H31.7134V20.1934H30.742V18.9964H30.0944V20.1934H29.123V18.9964H28.4753V20.1934H27.5039V18.9964H14.9919V7.82757C14.9919 2.9617 15.4582 2.56918 19.8879 2.16045V0H1.94238V2.16045C6.3721 2.51079 6.89667 2.97792 6.89667 7.82757V30.2106C6.89667 35.057 6.24905 35.349 1.94238 35.8161V37.9765H19.8944V35.7901C15.523 35.323 14.9984 35.0311 14.9984 30.1847V21.4942H25.7197V20.9622H26.6911V21.4942H27.3388V20.9622H28.3102V21.4942H30.5963V20.9622H31.5677V22.2598H30.7129V22.9085H31.5677V24.2061H30.7129V24.8549H31.5677V26.1525H30.7129V26.8012H31.5677V28.0988H30.7129V30.1392C30.7129 30.3404 30.7129 30.5285 30.7129 30.7134H31.571V32.011H30.6772C30.6772 32.2445 30.6481 32.4651 30.6287 32.6598H31.571V33.9573H30.5995V32.929C30.4862 33.714 30.2757 34.2266 29.8742 34.6094H29.9454V35.9069H28.974V35.1219C28.2454 35.3814 27.219 35.5241 25.7748 35.709L25.7359 37.7073H27.355V36.5557H28.3264V37.7138H28.974V36.5525H29.9454V37.717H30.593V36.5492H31.5645V37.7235H32.2121V36.546H33.1835V37.7268H33.8311V36.5427H34.8026V37.73H35.4502V36.5395H36.4216V37.7365H38.7045V36.5298H39.6759V37.743H40.3235V36.5265H41.295V37.7462H41.9426V36.5233H42.914V37.7495H43.5616V36.52H44.5331V37.756H45.1807V36.5168H46.1521V37.7592H46.722V35.602C45.8412 35.4982 45.1191 35.3944 44.5201 35.2776V35.8745H43.5487V34.9824C43.3171 34.8904 43.0992 34.7671 42.9011 34.6158V35.8745H41.9296V34.5769H42.8492C42.6311 34.398 42.4506 34.1775 42.3182 33.9281H41.9296V32.6306C41.8243 31.7534 41.78 30.8701 41.7969 29.9868V21.5753H41.9296V20.9557H42.9011V21.624H43.0662C43.2799 21.624 43.4774 21.624 43.6652 21.624V20.9395H44.6367V21.7667C44.8628 21.8265 45.0804 21.9148 45.2843 22.0294V20.9395H46.2557V22.2371H45.6081C45.8363 22.426 46.0388 22.6442 46.2104 22.8858H46.2687V22.9637C46.382 23.1291 46.4921 23.314 46.5925 23.5184C48.5742 27.0153 50.2612 30.5707 52.5894 33.7789C54.3348 36.2281 56.4751 37.8014 63.8807 38.1517C64.5769 38.2101 65.2763 38.2101 65.626 38.2101L66.034 36.2281C64.3599 35.6831 63.722 35.216 62.3814 33.7011ZM29.9551 2.65677H28.9837V1.3592H29.9551V2.65677ZM31.5742 35.9978H30.6028V34.7002H31.5742V35.9978ZM31.5742 4.61934H30.6028V3.32177H31.5742V4.61934ZM31.5742 2.67299H30.6028V1.37542H31.5742V2.67299ZM33.1932 34.0546H32.2218V32.7571H33.1932V34.0546ZM33.1932 32.1083H32.2218V30.8107H33.1932V32.1083ZM33.1932 30.1619H32.2218V28.8644H33.1932V30.1619ZM33.1932 28.2156H32.2218V26.918H33.1932V28.2156ZM33.1932 26.253H32.2218V24.9555H33.1932V26.253ZM33.1932 24.3067H32.2218V23.0091H33.1932V24.3067ZM33.1932 22.3441H32.2218V21.0465H33.1932V22.3441ZM33.1932 18.4222H32.2218V17.1246H33.1932V18.4222ZM33.1932 16.4759H32.2218V15.1783H33.1932V16.4759ZM33.1932 14.5295H32.2218V13.2319H33.1932V14.5295ZM33.1932 12.5832H32.2218V11.2856H33.1932V12.5832ZM33.1932 10.6368H32.2218V9.19002H33.1932V10.6368ZM33.1932 8.69046H32.2218V7.24367H33.1932V8.69046ZM33.1932 6.7441H32.2218V5.44654H33.1932V6.7441ZM33.1932 4.79775H32.2218V3.50019H33.1932V4.79775ZM33.1932 2.8514H32.2218V1.55384H33.1932V2.8514ZM34.8123 36.1924H33.8409V34.8948H34.8123V36.1924ZM34.8123 34.246H33.8409V32.9485H34.8123V34.246ZM34.8123 32.2997H33.8409V31.0021H34.8123V32.2997ZM34.8123 30.3533H33.8409V29.0558H34.8123V30.3533ZM34.8123 28.407H33.8409V27.1094H34.8123V28.407ZM34.8123 26.4444H33.8409V25.1469H34.8123V26.4444ZM34.8123 24.4981H33.8409V23.2005H34.8123V24.4981ZM34.8123 22.5355H33.8409V21.2379H34.8123V22.5355ZM34.8123 20.5891H33.8409V19.2916H34.8123V20.5891ZM34.8123 18.6428H33.8409V17.3452H34.8123V18.6428ZM34.8123 16.6964H33.8409V15.3989H34.8123V16.6964ZM34.8123 14.7501H33.8409V13.4525H34.8123V14.7501ZM34.8123 12.8037H33.8409V11.5062H34.8123V12.8037ZM34.8123 10.8574H33.8409V9.19002H34.8123V10.8574ZM34.8123 8.91104H33.8409V7.24367H34.8123V8.91104ZM34.8123 6.96469H33.8409V5.66712H34.8123V6.96469ZM34.8123 5.01834H33.8409V3.72077H34.8123V5.01834ZM34.8123 3.07199H33.8409V1.77442H34.8123V3.07199ZM36.4313 36.413H35.4599V35.1154H36.4313V36.413ZM36.4313 34.4666H35.4599V33.1691H36.4313V34.4666ZM36.4313 30.5447H35.4599V29.2472H36.4313V30.5447ZM36.4313 28.5984H35.4599V27.3008H36.4313V28.5984ZM36.4313 26.6358H35.4599V25.3382H36.4313V26.6358ZM36.4313 22.7139H35.4599V21.4163H36.4313V22.7139ZM36.4313 20.7676H35.4599V19.47H36.4313V20.7676ZM36.4313 18.8212H35.4599V17.5236H36.4313V18.8212ZM36.4313 16.8749H35.4599V15.5773H36.4313V16.8749ZM36.4313 14.9285H35.4599V13.6309H36.4313V14.9285ZM36.4313 11.0066H35.4599V9.19002H36.4313V11.0066ZM36.4313 9.06026H35.4599V7.24367H36.4313V9.06026ZM36.4313 7.11391H35.4599V5.81634H36.4313V7.11391ZM36.4313 3.19202H35.4599V1.89445H36.4313V3.19202ZM38.0504 36.533H37.079V35.2354H38.0504V36.533ZM38.0504 34.5866H37.079V33.2891H38.0504V34.5866ZM38.0504 32.6403H37.079V31.3427H38.0504V32.6403ZM38.0504 30.6939H37.079V29.3964H38.0504V30.6939ZM38.0504 28.7476H37.079V27.45H38.0504V28.7476ZM38.0504 26.785H37.079V25.4875H38.0504V26.785ZM38.0504 24.8387H37.079V23.5411H38.0504V24.8387ZM38.0504 22.8761H37.079V21.5785H38.0504V22.8761ZM38.0504 18.9542H37.079V17.6566H38.0504V18.9542ZM38.0504 17.0079H37.079V15.7103H38.0504V17.0079ZM38.0504 15.0615H37.079V13.7639H38.0504V15.0615ZM38.0504 13.1152H37.079V11.8176H38.0504V13.1152ZM38.0504 11.1688H37.079V9.19002H38.0504V11.1688ZM38.0504 9.22246H37.079V7.24367H38.0504V9.22246ZM38.0504 7.27611H37.079V5.97854H38.0504V7.27611ZM38.0504 5.32976H37.079V4.03219H38.0504V5.32976ZM38.0504 3.38341H37.079V2.08584H38.0504V3.38341ZM38.698 2.08584H39.6694V3.38341H38.698V2.08584ZM38.698 4.03219H39.6694V5.32976H38.698V4.03219ZM38.698 5.97854H39.6694V7.27611H38.698V5.97854ZM38.698 7.92489H39.6694V9.22246H38.698V7.92489ZM38.698 9.87124H39.6694V11.1688H38.698V9.87124ZM38.698 11.8176H39.6694V13.1152H38.698V11.8176ZM38.698 13.7639H39.6694V15.0615H38.698V13.7639ZM38.698 15.7103H39.6694V17.0079H38.698V15.7103ZM38.698 17.6566H39.6694V18.9542H38.698V17.6566ZM39.6694 36.6141H38.698V35.3165H39.6694V36.6141ZM39.6694 34.6677H38.698V33.3702H39.6694V34.6677ZM39.6694 32.7214H38.698V31.4238H39.6694V32.7214ZM39.6694 30.775H38.698V29.4775H39.6694V30.775ZM39.6694 28.8287H38.698V27.5311H39.6694V28.8287ZM39.6694 26.8661H38.698V25.5686H39.6694V26.8661ZM39.6694 22.9442H38.698V21.6467H39.6694V22.9442ZM39.6694 20.9979H38.698V19.7003H39.6694V20.9979ZM41.2885 34.7261H40.317V33.4286H41.2885V34.7261ZM41.2885 32.7798H40.317V31.4822H41.2885V32.7798ZM41.2885 28.8579H40.317V27.5603H41.2885V28.8579ZM41.2885 26.8953H40.317V25.5978H41.2885V26.8953ZM41.2885 24.949H40.317V23.6514H41.2885V24.949ZM41.2885 22.9864H40.317V21.6888H41.2885V22.9864ZM41.2885 21.04H40.317V19.7425H41.2885V21.04ZM41.2885 19.0937H40.317V17.7961H41.2885V19.0937ZM41.2885 17.1473H40.317V15.8498H41.2885V17.1473ZM41.2885 15.201H40.317V13.9034H41.2885V15.201ZM41.2885 13.2546H40.317V11.9571H41.2885V13.2546ZM41.2885 11.3083H40.317V9.19002H41.2885V11.3083ZM41.2885 7.38316H40.317V6.08559H41.2885V7.38316ZM41.2885 5.43681H40.317V4.13924H41.2885V5.43681ZM41.2885 3.49046H40.317V2.19289H41.2885V3.49046ZM46.8353 2.19289H47.8068V3.49046H46.8353V2.19289ZM41.9426 2.19289H42.914V3.49046H41.9426V2.19289ZM49.0664 18.5098C47.9946 19.4376 46.4759 19.869 44.5331 19.989V21.1536H43.5616V20.0215H43.3706H42.9108V21.1471H41.9393V20.0215H41.8066V6.07261C41.8066 4.9048 41.9231 4.20736 42.3279 3.85702C42.6776 3.50667 43.4353 3.27311 45.0058 3.27311H45.2001V2.17018H46.1715V3.37043C49.0534 3.85702 51.8058 6.22508 51.8058 11.6651C51.9062 13.8191 51.0902 16.0347 49.17 17.6664L49.0664 18.5098Z" fill="white"/>
<path d="M34.9997 5.04785H33.6396V6.76713H34.9997V5.04785Z" fill="#EF7700"/>
<path d="M39.9577 1.13867H38.5977V2.85795H39.9577V1.13867Z" fill="#EF7700"/>
<path d="M38.2741 8.97266H36.9141V10.6919H38.2741V8.97266Z" fill="#EF7700"/>
<path d="M39.9381 28.5986H38.5781V30.3179H39.9381V28.5986Z" fill="#EF7700"/>
<path d="M33.4977 32.5264H32.1377V34.2456H33.4977V32.5264Z" fill="#EF7700"/>
<path d="M39.9381 34.5156H38.5781V36.2349H39.9381V34.5156Z" fill="#EF7700"/>
<path d="M33.4069 22.7559H32.0469V24.4751H33.4069V22.7559Z" fill="#EF7700"/>
<path d="M39.9577 16.8428H38.5977V18.562H39.9577V16.8428Z" fill="#EF7700"/>
<path d="M33.4616 12.8623H32.1016V14.5816H33.4616V12.8623Z" fill="#EF7700"/>
</svg>
